<mxfile modified="2020-03-30T10:04:52.109Z" host="app.diagrams.net" agent="Mozilla/5.0 (Windows NT 10.0; Win64; x64) AppleWebKit/537.36 (KHTML, like Gecko) Chrome/79.0.3945.130 Safari/537.36" etag="pwWKCPsAh6xHn5r1eQ-Z" version="12.9.0" type="github">
  <diagram id="f106602c-feb2-e66a-4537-3a34d633f6aa" name="Page-1">
    <mxGraphModel dx="1038" dy="547" grid="1" gridSize="10" guides="1" tooltips="1" connect="1" arrows="1" fold="1" page="1" pageScale="1" pageWidth="1169" pageHeight="827" background="#ffffff" math="0" shadow="0">
      <root>
        <mxCell id="0" />
        <mxCell id="1" parent="0" />
        <mxCell id="14" value="&lt;b&gt;Airflow Pipeline Scheduling&lt;/b&gt;" style="fillColor=#F6F6F6;strokeColor=none;shadow=0;gradientColor=none;fontSize=14;align=left;spacing=10;fontColor=#717171;9E9E9E;verticalAlign=top;spacingTop=-4;fontStyle=0;spacingLeft=40;html=1;" parent="1" vertex="1" treatAsSingle="0">
          <mxGeometry x="420" y="100" width="550" height="340" as="geometry" />
        </mxCell>
        <mxCell id="5ywXDolXijbEV4QdVwtj-1016" value="" style="shape=image;verticalLabelPosition=bottom;labelBackgroundColor=#ffffff;verticalAlign=top;aspect=fixed;imageAspect=0;image=data:image/png,iVBORw0KGgoAAAANSUhEUgAAAOEAAADhCAMAAAAJbSJIAAABxVBMVEX///8Ax9QArUbkOSEBfO4R4e4E1ln/dVcMtv8AxNIAeu5KSEgMuP8Aq0UAcu0Muf8Adu0AqTjkNBr/dFYAqz8As/8AcO0AdvTjJwAAvP8Ay9rjMRUApzLjLQz/b0z//PsE2k4L1eIS5Pb/b00E20sA1E387OrmTDjjKQD98O6O4efe9vjL8fToQyv/fGD0X0Sp6O0DhPAGkvQKqvsJovkCv04DsKOhx/f2xsHnVkXrem7529dj1+Dqc2a36e6W4+nujYPwm5P40s7u+/z/xLn/rJzQSkRTxv8JpfrA2frb6vxYn/IDw1AO19ECktAN0sN7sPQEtGIJwpJ55Zyh7Lmz0fjD89Pk9erR7dqT1aeo27bqc2jyqaPmUT/oZVfxpZ75iHS2YXCOgKR+ha2uaHv/oY5Iot2fc4+8jH/J7v9vr7LQinraQC+uZXWdoJpDu8LHU1bhgmxmk8SHp6WmnJRjsrV4z/+0louY2/+iPzO2Oy04botMQDgyjfARdts9eHspZqw+YmZGU0JONTJMQkg2jZMDtpkzeEg9Xj0BwIMDprMBiN0IwIsEzG4LyqqNuvUBj9NzyY1Pv3OF5qQ/3Xd4y5Ka16z2U65VAAAOTklEQVR4nO3di1sU1xUA8H3BsuPCPlhdFBbEDS/NahaJQdCIYlMfSQy2KhAliaYmbWxt2rQ1TekjTW3VJqm0+Pf2zszO7Dzu+5y7g197vi/f52eQ+PvOufecO3OXpFL/CzExPT09NzeR9F/DXCyO+NGoZlszp09vvb+0tLJy/vbFxcULy9NzEy8p/kz6jPuLmWo2EFU7Rkk0Go3ZDrw6c/rs0soHFxcvTL9EqT5TSBdec351ejQrCgftgrN3tpbO315c3vNUAkwXjjq/XG5UhcSQ1rHOtk4vfXBxeTphBzNsoCdMLVeViD51tGFDt1ZuL88lq6GEA/SFqelRLaIHnR1ptM5+cGEvMV1gV5ia1stiIOx8tpZuLyfJ6sZRF5gunPN/ay4LJTpMsj7P7gGlBwwKkYiucnRlMdGK9YFet3BjriVuGtLKkZGt24ntsl1gWIhKJPvPbFLIADBdeDP0rybuYBJd5MWezwXnAsCoMDUhMd0oIkeqK73deELAmNAAMZttjGwt9g74WggYFxohkkS2LiYDpAgJsYFP7JkxCkwXXqV8lREiMWbN12oMSBemtowQs9mRO4b3nDdjwHThGPUrt2bNEKsjKyZ7BwXIEqbOGiJmGwZL9VUKkCk0RzSXRiowXVhlff37I4aI2caMkdVIB6YL7D+xZIxYHTFQqQxgOs35MyvGiNmR8z0D8oRGiUu4wGNMIFeYOm+QuNUjIF9okthAJB5j+9KHBH/WJPFsL4DeU/1EiLNIxFUeUCw0SvzQPFBCmLptsFARiAJgQUJoktj6EDrBCYCBR968uGhuujlxHEgUAEMPhBMhtoZhRBEw8rg0AWL1BIh4iNPpO8L4Yxp6LJoitvIAohgoLzRGrDYJUfMVhwSQ8ZiGGhcMEWfyukQZIPuI3ztiNU+IeY3XG1JAzhG/Z8TqCT3iGSlgOq0iNEQkZUqIw4pEWaDg8NQbYt4hNpWI0kDR4SkayyNIr4kDUR1WJ0oDZQbvcEzP4hNP5F3iuDRRHqguhN1KocdM3iNKPmVUAMoN3hEi+FZKNFp5NaICUHbwNk3Md4kXxP/9owpA6cE7QsS6leLFsApRCagytIWIqFc2gkIxUQ2oNLQFY24GldjMSxMVgWpDmzFi9UQ+ROS81FAFqo40gZjAJIaE+fw484W/OlB1pDFEjAiZxHPKQI2Gb4QYFTKI8VsIwpB6lsgmol3ZiAmpRA2gXsMPELGubMSFFKIOUOEpDSOQiBRhjKgF1G6H3UC5z1ClCfPjP4AD9dshLpEuDBFpF2WkAgxEIVaHqcIAkf2SXhCAdohKZAh9ojYQ1A4DRPDDG5awQ9QHApuFH86VjdHZ2Vm1jxZ1gwV0ifpAeLPoEhujH929d/fjB1rIFluYH/8JAIjQLHziR8WDpVLpYOn+J1n1ZckT5pufHtIXqj0O5sVP9xcHnCgeHLg7qjoG0JuFn8WfAYh4wAE/iPFjtYeqjHboxfBn+kKcrTQMdIz3H6iUKqsdesIPtYFYW2kESKJU/LlKB+EC88PH9YV6j6GicSUGtNN4T/7ZOHejgeUQZSs9RgGSOHi/KntAnhEIAesQBUj12ZU6cEduTxVsNPnmL7SFGBsNE0gqtfiWFFGw0eSbD3WBGBvNsSJbOFAc+KUUUVCkn2unEGGj4QLtLMoQBRtN89f6QvBEs8r1yRaqoN/r76TwjWaVn0GX+EC0owqWYVN/ZtN5dRgGloRAmyh8oWpqFcKPTiV6I4xE6b5ggJvhp1B7I4Uvw4NSQEL8FX+A4y5DQC9MA5fhqiyQTDd3uVnkLUPIOANchgpAQvyIQ+T1CsDMnYYuQxUg6fx3mLsNd2RrPoTUKGgZKgEJkbPbcIoUdLiHDaU/VAOSOr3H2m04RTquP8w4KQQMpcpAeykyZht2kY5/AQJCzoYaQNL4GU8Z2c+CgUDA83wdILMrMosUDNTvFXpAUqcfU3Yb5k46Dur0jlC3SHWBpE5blDplvXSCbTJ26Bbpb3WB9DqlF+lw8zdgoG6RAoDU/ZRapMPHQY2+I9QrUhCQjDaxoyIN2Py8AAdqFqkHLBaLpVLJe1Fh/9IOiSTemxWncPx3CD7NO5cOkOCKJxfm59vtXCfa7e35+YWT+4slIbP4VvjnT8b3mWHAkT4UOjMpARLCyfl2ziKRC4bl/E6bOG0mWxg5Dcf3mebnCEswrXkT6hFJ0sn5XMQWhebaXGV4s4kW6TBOhab19plH+0sL7TKHF2ASJQMZPmREE3gc3iQ6oZHCR/sX2hI8X5mbvzRQoiAPfjLLSOFw89M0FlDjSfCjSwo+H7kQR5IJ3N9nTCVQp1U8mlf0ecjtWCa7D21mQgn8Ai2BOo8vHuV0gF4mT4aaiJ/EajPg+wxnC/VCFXhDZoPhINsL+wOJLHWS2AoUKFIP7IRyCi8PAXwd5Palbh6Lzoc1/HMTboHaoboKLx+AAh1kbt5LJElitVrN+i0QYwoNhmovxAHaRmv+pGMslh58+eXvT7g+5AWYVh9nrmABbWO5fcke2r/aZ8dZ4kOa0cKhNpGuQvYYGjK3UPrqD45wXx4/f2n1Q8U2spAY/9gB7vuTAZ9yjb5Xxgbmcn/2hPtMCBVr9Aa4T8TDMipUbIWr+L5glf4FX6j6+Okqfo1a9WePv3aBf304iQ5UXIT4NWrVt68fPvz2N9/YwL/19fVhG9WAKXxf+/HhqX4Sf/963z8e9jkxmQZccY6E6vtC7H20bp1yff39mVqt9uRIX8co9/M7JICK0xrmMEOiXH/af9j19b8+mMlkxt7p82MyCSDuNmPV3/3W8/X328BMN4luIsFCVSBqCuvPnrzi+/pfzzgRTCI4kYVDyk9mruKNa+XyqampLtBNYTSJsG2nMKkMvILWKcIFSuLtjjCWRMeoh1QH4q3Ccu5xyEc2Ui9qa7Ek6iEn+9QvzqClsP5ufwTop5Ak8RqVqNhBJvs0gFi90Ko/fqU/Eq93hZk1BlA6lQXb16dzERgHWH/27eEosD8AzFS+YyXRU3KbyKFJ56t07na9gSG06k/jvlAKyVLkAnnOjk4TiHKyt6zrsQoN7jOu8J/8JEaknQj9rtabUIx9prxNqdDQPuPWKaVjKIXezS6EfYbsoVMUYKRI7Y6RBBDh2ERdgvEildhsjADhT/Hrp2hLkFKkwDrVvXwInmfq0TGmm8K4kDHZyIT2xTXgRmrVr7OA/XEgmWx061QbCCxSq/6ECYzuMx1ij4HQnZSTQVqRatcp4IozyMcFUovU3myuqxMBQFi7Z+6iTpHSgfYho4fA1PeQIq0/5QDjzbAbPQSCZtLyv3hAVpGqL0UQcBXwBMpq83y0dq+3FGEf7r0MKNL6E+os6hcpR6jUFUFASK9gDqPCInWy+I4sEQZMtcUSRljPuBnkFqmzFiUHVCAQsAwFNcruFZ5wsBdAwDIsv8uvUV6v6BBlzopQIKAb1tf4QMEylCSCgfrd0BKlULQMpYgIPzBIP4XX+atQuAxliAhA/aHUEtSoeBl6RHbTwPiRT9oPSi3+vCa1DF1ihtkXUX6mlXa/Lwu6vdQydKPCeJuB80O7tDea+inBMpQXZsaoMyrSTyXTPlcIhfQHGIwsrsUrFQmov9EIq1TeR6IWm8OxfnLeDe1mYT0TCBVS6Kbx2pEj+EDI+b5+CnKwoMTY2rU+F3mkbwMLCLmeYLV/xFuJChuNF7XK4PVr5LzxzneDY7tYQsDRKXclxSNqCB1kpUb+IQl9jgPUv/JsWVfIn+cQpWY2TlRwiNpbqVW+4nwDNhEqzFR2MIS6h0MPyCFyn9H0jqg5lXaBbCJciELUnEoDwFTq33Qi2IdD1PoIXhjIImIIEYhazaJ8OfJdfkwjogjBRK1mMRQF0ok4QnJABgl1mgUFSCUiCYFEjZe/VCCNiCWEEdVPFgfoQAoRTQgiKp8smEBCZF0qxSBqn4ZV2+GBG5xvdnPKlDBTG9QlKp6dDrzB/W5hIsJMEyBmbukJ1R5DDfGBEaLKYxpzRKWGLwSGieCzBQZRqeFLAENEvRMwMlHlMySCNRgnYgu1iAojzdD3kt9z3SciA0lUlIny59+h96S/qU/EF2Yq64pC6ZFGAZhK3ZoystU4MaZIlD3hKwF9IvpCtEMxi5IjjSKQEN0kmhAqEuWuBisDPSJuz9ciSg1tZXVgh2ikTNWIMkNb+aoGsEM0I8yM3cQUagJdoond1CFuyv4txGOpNpCMhOaSKE8UphAAdIimkihNFI2lICAJc0mUJIoG7/I8DJhK/cfQdipLFAzecCAhVhIl8p8llrfhQJtoSpgZE78J5x4tcICp1E6SRN7RoryN9X8RNEkUveznCPGAiRLZhyesEk2ayHzibbXxMmjH86SILKGVQ/XZxLFkiIwDsJXDzaAdL8wRebdS6EL7JhB+rNdqCRCpR3wzQDKH7xhLI/tNOO2IbwpI4kXFVBqZRIrQIJAcio2lkUWMH/Hdy2rmYrNmqG8wiHFh2SyQxMaYmVKlE2PCIeNAsuM8N2OkvuyPPqZhXLPAjltmjDRiRMi5hYBt3DWxHinERDLYic01/ETGiVZyQBLrz2vYDTJ2K6WcJJDE6uZOBRdZWwu/Qw0Ih3gXZV4iZG0wROw+TOTeBDIcqzefZ8bQlOGX/b5Q8haCuVh/sTOGpAwS/Q9xJw50Yn0DRxkgesK9AXTi1ubuWoUwQc4usSPcQ0A31jd3dzIQZ63WIbqvLQ7IXpTpbdyynYO1MftDQurSzmtiRyh9EyiRWCXQjR1b6lKlrTWn9dvCvQ30w5Zubjzf2Vkj5UuwLpcD7rwIv3pgj5YoJ1YJdv3m5ouNXdu7Zn/41I2KHzX7w2+d8e1yD86DPYhbBE3YN29ubm6+eLGxsbG7oXnf9v+xx+K/6RlDs9VvwlIAAAAASUVORK5CYII=;" parent="14" vertex="1">
          <mxGeometry x="20" y="10" width="23.658051689860834" height="23.658051689860834" as="geometry" />
        </mxCell>
        <mxCell id="5ywXDolXijbEV4QdVwtj-1032" value="" style="whiteSpace=wrap;html=1;strokeColor=#999999;fillColor=none;rounded=1;comic=0;dashed=0;align=left;strokeWidth=2;labelBackgroundColor=none;endFill=1;endArrow=blockThin;endSize=4;startFill=1;startSize=4;glass=1;" parent="14" vertex="1">
          <mxGeometry x="10" y="220" width="530" height="100" as="geometry" />
        </mxCell>
        <mxCell id="997" value="&lt;font style=&quot;font-size: 12px&quot;&gt;Multiple&lt;br&gt;Clients&lt;br&gt;Pipeline Requests&lt;/font&gt;" style="rounded=1;absoluteArcSize=1;arcSize=2;html=1;strokeColor=none;gradientColor=none;shadow=0;dashed=0;fontSize=12;fontColor=#9E9E9E;align=left;verticalAlign=top;spacing=10;spacingTop=-4;fillColor=#F1F8E9;" parent="1" vertex="1">
          <mxGeometry x="290" y="140" width="90" height="270" as="geometry" />
        </mxCell>
        <mxCell id="818" value="Architecture: Scheduling and Storage&amp;gt; Airflow" style="fillColor=#4DA1F5;strokeColor=none;shadow=1;gradientColor=none;fontSize=14;align=left;spacingLeft=50;fontColor=#ffffff;html=1;" parent="1" vertex="1">
          <mxGeometry x="290" y="40" width="680" height="40" as="geometry" />
        </mxCell>
        <mxCell id="5ywXDolXijbEV4QdVwtj-1009" style="edgeStyle=orthogonalEdgeStyle;rounded=0;orthogonalLoop=1;jettySize=auto;html=1;exitX=1;exitY=0.5;exitDx=0;exitDy=0;entryX=0;entryY=0.5;entryDx=0;entryDy=0;dashed=0;fontSize=12;align=left;strokeColor=#4284F3;strokeWidth=2;labelBackgroundColor=none;endFill=1;endArrow=blockThin;endSize=4;startFill=1;startSize=4;" parent="1" source="985" target="989" edge="1">
          <mxGeometry relative="1" as="geometry">
            <Array as="points">
              <mxPoint x="470" y="235" />
              <mxPoint x="470" y="170" />
            </Array>
          </mxGeometry>
        </mxCell>
        <mxCell id="5ywXDolXijbEV4QdVwtj-1037" value="Pipeline Workflow" style="text;html=1;align=center;verticalAlign=middle;resizable=0;points=[];labelBackgroundColor=#F6F6F6;" parent="5ywXDolXijbEV4QdVwtj-1009" vertex="1" connectable="0">
          <mxGeometry x="-0.0694" relative="1" as="geometry">
            <mxPoint as="offset" />
          </mxGeometry>
        </mxCell>
        <mxCell id="985" value="" style="strokeColor=#dddddd;fillColor=#ffffff;shadow=1;strokeWidth=1;rounded=1;absoluteArcSize=1;arcSize=2;labelPosition=center;verticalLabelPosition=middle;align=center;verticalAlign=bottom;spacingLeft=0;fontColor=#999999;fontSize=12;whiteSpace=wrap;spacingBottom=2;html=1;" parent="1" vertex="1" treatAsSingle="0">
          <mxGeometry x="300" y="200" width="70" height="70" as="geometry" />
        </mxCell>
        <mxCell id="986" value="" style="dashed=0;connectable=0;html=1;fillColor=#757575;strokeColor=none;shape=mxgraph.gcp2.mobile_devices;part=1;" parent="985" vertex="1">
          <mxGeometry x="0.5" width="50" height="36.5" relative="1" as="geometry">
            <mxPoint x="-25" y="16.75" as="offset" />
          </mxGeometry>
        </mxCell>
        <mxCell id="5ywXDolXijbEV4QdVwtj-1036" value="AI Platform" style="text;html=1;align=center;verticalAlign=middle;resizable=0;points=[];labelBackgroundColor=#ffffff;" parent="985" vertex="1" connectable="0">
          <mxGeometry x="35" y="60" as="geometry">
            <mxPoint as="offset" />
          </mxGeometry>
        </mxCell>
        <mxCell id="998" style="edgeStyle=elbowEdgeStyle;rounded=0;elbow=vertical;html=1;labelBackgroundColor=none;startFill=1;startSize=4;endArrow=blockThin;endFill=1;endSize=4;jettySize=auto;orthogonalLoop=1;strokeColor=#4284F3;strokeWidth=2;fontSize=12;fontColor=#000000;align=left;dashed=0;entryX=0.5;entryY=1;entryDx=0;entryDy=0;exitX=0.5;exitY=0;exitDx=0;exitDy=0;" parent="1" source="987" target="985" edge="1">
          <mxGeometry relative="1" as="geometry" />
        </mxCell>
        <mxCell id="987" value="" style="strokeColor=#dddddd;fillColor=#ffffff;shadow=1;strokeWidth=1;rounded=1;absoluteArcSize=1;arcSize=2;labelPosition=center;verticalLabelPosition=middle;align=center;verticalAlign=bottom;spacingLeft=0;fontColor=#999999;fontSize=12;whiteSpace=wrap;spacingBottom=2;html=1;" parent="1" vertex="1" treatAsSingle="0">
          <mxGeometry x="300" y="320" width="70" height="80" as="geometry" />
        </mxCell>
        <mxCell id="988" value="" style="dashed=0;connectable=0;html=1;fillColor=#757575;strokeColor=none;shape=mxgraph.gcp2.laptop;part=1;" parent="987" vertex="1">
          <mxGeometry x="0.5" width="50" height="33" relative="1" as="geometry">
            <mxPoint x="-25" y="18.5" as="offset" />
          </mxGeometry>
        </mxCell>
        <mxCell id="5ywXDolXijbEV4QdVwtj-1002" value="" style="pointerEvents=1;shadow=0;dashed=0;html=1;strokeColor=none;labelPosition=center;verticalLabelPosition=bottom;verticalAlign=top;align=center;fillColor=#505050;shape=mxgraph.mscae.intune.user_group" parent="987" vertex="1">
          <mxGeometry x="20" y="25.5609756097561" width="50" height="28.878048780487806" as="geometry" />
        </mxCell>
        <mxCell id="1000" style="edgeStyle=orthogonalEdgeStyle;rounded=0;elbow=vertical;html=1;labelBackgroundColor=none;startFill=1;startSize=4;endArrow=blockThin;endFill=1;endSize=4;jettySize=auto;orthogonalLoop=1;strokeColor=#4284F3;strokeWidth=2;fontSize=12;fontColor=#000000;align=left;dashed=0;entryX=0.5;entryY=0;entryDx=0;entryDy=0;" parent="1" source="989" target="5ywXDolXijbEV4QdVwtj-1032" edge="1">
          <mxGeometry relative="1" as="geometry">
            <mxPoint x="685" y="300" as="targetPoint" />
          </mxGeometry>
        </mxCell>
        <mxCell id="5ywXDolXijbEV4QdVwtj-1035" value="Trigger Dag" style="text;html=1;align=center;verticalAlign=middle;resizable=0;points=[];labelBackgroundColor=#F6F6F6;" parent="1000" vertex="1" connectable="0">
          <mxGeometry x="-0.2367" relative="1" as="geometry">
            <mxPoint as="offset" />
          </mxGeometry>
        </mxCell>
        <mxCell id="989" value="&amp;nbsp; &amp;nbsp; &amp;nbsp; &amp;nbsp; &amp;nbsp; Airflow Web&lt;br&gt;&amp;nbsp; Server" style="strokeColor=#dddddd;fillColor=#ffffff;shadow=1;strokeWidth=1;rounded=1;absoluteArcSize=1;arcSize=46;fontSize=11;fontColor=#9E9E9E;align=center;html=1;" parent="1" vertex="1" treatAsSingle="0">
          <mxGeometry x="630" y="140" width="130" height="60" as="geometry" />
        </mxCell>
        <mxCell id="5ywXDolXijbEV4QdVwtj-1014" style="edgeStyle=orthogonalEdgeStyle;rounded=0;orthogonalLoop=1;jettySize=auto;html=1;exitX=1;exitY=0.5;exitDx=0;exitDy=0;entryX=0;entryY=0.5;entryDx=0;entryDy=0;dashed=0;fontSize=12;align=left;strokeColor=#4284F3;strokeWidth=2;labelBackgroundColor=none;endFill=1;endArrow=blockThin;endSize=4;startFill=1;startSize=4;" parent="1" source="991" target="993" edge="1">
          <mxGeometry relative="1" as="geometry" />
        </mxCell>
        <mxCell id="991" value="" style="strokeColor=#dddddd;fillColor=#ffffff;shadow=1;strokeWidth=1;rounded=1;absoluteArcSize=1;arcSize=29;fontSize=11;fontColor=#9E9E9E;align=center;html=1;" parent="1" vertex="1" treatAsSingle="0">
          <mxGeometry x="440" y="330" width="145" height="70" as="geometry" />
        </mxCell>
        <mxCell id="992" value="&lt;font color=&quot;#000000&quot;&gt;Task1&lt;/font&gt;&lt;br&gt;Landing Task&lt;hr&gt;&lt;font style=&quot;font-size: 11px&quot;&gt;Load Script data&lt;/font&gt;" style="dashed=0;connectable=0;html=1;fillColor=#5184F3;strokeColor=none;shape=mxgraph.gcp2.hexIcon;prIcon=app_engine;part=1;labelPosition=right;verticalLabelPosition=middle;align=left;verticalAlign=top;spacingLeft=5;fontColor=#999999;fontSize=12;spacingTop=-8;" parent="991" vertex="1">
          <mxGeometry width="44" height="39" relative="1" as="geometry">
            <mxPoint x="5" y="7" as="offset" />
          </mxGeometry>
        </mxCell>
        <mxCell id="5ywXDolXijbEV4QdVwtj-1028" value="" style="html=1;dashed=0;whitespace=wrap;fillColor=#2875E2;strokeColor=#ffffff;points=[[0.005,0.63,0],[0.1,0.2,0],[0.9,0.2,0],[0.5,0,0],[0.995,0.63,0],[0.72,0.99,0],[0.5,1,0],[0.28,0.99,0]];shape=mxgraph.kubernetes.icon;prIcon=master;rotation=30;" parent="991" vertex="1">
          <mxGeometry x="9.354838709677418" y="-3.6899999999999977" width="32.74193548387097" height="59.72" as="geometry" />
        </mxCell>
        <mxCell id="995" value="" style="strokeColor=#dddddd;fillColor=#ffffff;shadow=1;strokeWidth=1;rounded=1;absoluteArcSize=1;arcSize=46;fontSize=11;fontColor=#9E9E9E;align=center;html=1;" parent="1" vertex="1" treatAsSingle="0">
          <mxGeometry x="790" y="330" width="160" height="70" as="geometry" />
        </mxCell>
        <mxCell id="996" value="&lt;font color=&quot;#000000&quot;&gt;Task3&lt;/font&gt;&lt;br&gt;Storage Engine&lt;hr&gt;&lt;font style=&quot;font-size: 11px&quot;&gt;Store to Zone2&lt;/font&gt;" style="dashed=0;connectable=0;html=1;fillColor=#5184F3;strokeColor=none;shape=mxgraph.gcp2.hexIcon;prIcon=container_engine;part=1;labelPosition=right;verticalLabelPosition=middle;align=left;verticalAlign=top;spacingLeft=5;fontColor=#999999;fontSize=12;spacingTop=-8;" parent="995" vertex="1">
          <mxGeometry width="44" height="39" relative="1" as="geometry">
            <mxPoint x="5" y="7" as="offset" />
          </mxGeometry>
        </mxCell>
        <mxCell id="5ywXDolXijbEV4QdVwtj-1027" value="" style="html=1;dashed=0;whitespace=wrap;fillColor=#2875E2;strokeColor=#ffffff;points=[[0.005,0.63,0],[0.1,0.2,0],[0.9,0.2,0],[0.5,0,0],[0.995,0.63,0],[0.72,0.99,0],[0.5,1,0],[0.28,0.99,0]];shape=mxgraph.kubernetes.icon;prIcon=master;rotation=30;" parent="995" vertex="1">
          <mxGeometry x="9.411764705882353" y="-3.3799999999999955" width="32.94117647058823" height="59.72" as="geometry" />
        </mxCell>
        <mxCell id="5ywXDolXijbEV4QdVwtj-1015" style="edgeStyle=orthogonalEdgeStyle;rounded=0;orthogonalLoop=1;jettySize=auto;html=1;exitX=1;exitY=0.5;exitDx=0;exitDy=0;entryX=0;entryY=0.5;entryDx=0;entryDy=0;dashed=0;fontSize=12;align=left;strokeColor=#4284F3;strokeWidth=2;labelBackgroundColor=none;endFill=1;endArrow=blockThin;endSize=4;startFill=1;startSize=4;" parent="1" source="993" target="995" edge="1">
          <mxGeometry relative="1" as="geometry" />
        </mxCell>
        <mxCell id="993" value="" style="strokeColor=#dddddd;fillColor=#ffffff;shadow=1;strokeWidth=1;rounded=1;absoluteArcSize=1;arcSize=27;fontSize=11;fontColor=#9E9E9E;align=center;html=1;" parent="1" vertex="1" treatAsSingle="0">
          <mxGeometry x="605" y="330" width="160" height="70" as="geometry" />
        </mxCell>
        <mxCell id="994" value="&lt;font color=&quot;#000000&quot;&gt;Task2&lt;/font&gt;&lt;br&gt;Compute Engine&lt;hr&gt;&lt;span style=&quot;font-size: 11px&quot;&gt;Execute Notebook&lt;/span&gt;" style="dashed=0;connectable=0;html=1;fillColor=#5184F3;strokeColor=none;shape=mxgraph.gcp2.hexIcon;prIcon=compute_engine;part=1;labelPosition=right;verticalLabelPosition=middle;align=left;verticalAlign=top;spacingLeft=5;fontColor=#999999;fontSize=12;spacingTop=-8;" parent="993" vertex="1">
          <mxGeometry width="44" height="39" relative="1" as="geometry">
            <mxPoint x="5" y="7" as="offset" />
          </mxGeometry>
        </mxCell>
        <mxCell id="5ywXDolXijbEV4QdVwtj-1022" value="" style="html=1;dashed=0;whitespace=wrap;fillColor=#2875E2;strokeColor=#ffffff;points=[[0.005,0.63,0],[0.1,0.2,0],[0.9,0.2,0],[0.5,0,0],[0.995,0.63,0],[0.72,0.99,0],[0.5,1,0],[0.28,0.99,0]];shape=mxgraph.kubernetes.icon;prIcon=master;rotation=30;" parent="993" vertex="1">
          <mxGeometry x="10.33" y="-4.69" width="35" height="59.72" as="geometry" />
        </mxCell>
        <mxCell id="5ywXDolXijbEV4QdVwtj-1031" value="" style="shape=image;verticalLabelPosition=bottom;verticalAlign=middle;aspect=fixed;imageAspect=0;image=data:image/png,iVBORw0KGgoAAAANSUhEUgAAAb8AAAHjCAYAAACzXxH+AAAAAXNSR0IArs4c6QAAAARnQU1BAACxjwv8YQUAAAAJcEhZcwAAJOgAACToAYJjBRwAAL95SURBVHhe7L2HX1RH9Db++6t+7+99328iIAvYCwvsUsTee+9dY4tJTGI00Wjs0ssuvVcpghTpggiIdARUQM3zO2fubiRkVWR3kbvM8/k8n91ll3vvzJ17njkzZ878P5CQkJCQkJhikOInISEhITHlIMVPQkJCQmLKQYqfhISEhMSUgxQ/CQkJCYkpByl+EhISEhJTDlL8JCQkJCSmHKT4SUhISEhMOUjxk5CQkJCYcpDiJyEhISEx5SDFT0JiHPib+P7vv9HdM4CaJ21ITm9AcHg17odW425wFW7dr8Lte8xqel+J20zxuVL5TK/8eeT7D98p/yveB1XgdjCzDEERpYhLqsCj0iZx3sGht8rFSEhIfDGk+ElIEN6//xtDw+/x6vVb9PYNfZY9LwfR1fMGJY9bEBL1CLsOpkAbEI0F+ijM8YqEx8IIzFgQKeixIFxwxgL+G78PE6/8+Z/v5o94L35n+qwNxQzvEOJdeC66g/XbQ3H5WjYelbeg6flLi9f2MQ4OvQPptYSEBEGKn4QEoad3kASlE/cia3H0h8LP83whjpwvwK7j2VizOxneK2Iwg4TPwycK7t5R0Ggjifxqfj9OekVA480kwdSHYeGSCCzdEo+ddN4DZ/IsX9t/+JBYhIy8VgwOvhVCLyEx1SHFT8Lhwca+o7MfdQ2dqKjqQGlFJ0oEu4jdxB6kZLfij9sV2Lg/C9NJvByNLt7ROHepBA8etqGozFx2fuX6aEdZZTvVTzf6Bwbx7t17U81JSDgupPhJODyGh98hMbUCZ35KwbZ9SVi9PRnLtqcRM4nZWLr9ARZtzob36kTMCYyxKB6qpk8kXHRh8FyRgCWbs7BsK3FbBpbtSMXy7UlYsT2OvNc4nPolG4+rXuDVq0FTzUlIOC6k+Ek4DKrr2hCXUgVDwhNExdUjKr4GUQm1CI2pwZFzGVi0Phpz/KPh5mOAq4+RGAONdyxcveOJsSQU0f8VDocgiZ9PBL1y+WLovYEEkeuAyu/D9REGD99gLNpowIVrD3HfUI2IhHpExjdSHTYRm5FT0IHOrtcYkkE2Eg4CKX4SDoObwXnwWnYds/RhcPOKgLvPXWh09+CqD1G8HzL8Tt4J9BoPjVcs3LRGogHuWhIAL0ui4Shk0TOQ6EUTI+FMXqCLTxRctYnQaLkuqPzeYSSGwXDyDcU03zA460ksdSyOiXD3TsWuI0UoKW9D78vXptqWkFA3pPhJqAr9/a/R+KyNPLtyXLiaj/NXyvHD1cf4+VoJNuxLwGz/e2TISey0IWTgg+CiY+GLgKsXeXraBLh6JtNrHBn6cMHp3mTkSRAELQqHI5A9P6V8riSErt5UF1QfGq4TL/IAxd8iqT6UuhDvuV60VD9EDf2ffk0C9p/LxZmLRfjpchkuXHqMX38vwx9/5iEzq07OE0qoDlL8JCYteIjtZd8bPH/Rh6dNvcQ+FJW2wJhQhi0HedjyLr4lA+5EHp1GHwk3HRlqnzAhfM5a8mJ0oeTlRCheDnt6nglwW5hM3k4MGflg8mxIIMkLcqLfOOscWPxI0FyobljUNCR2GhJ/jTaWRE0ROv4Ne4XsHbrR927aKCJ1GDypfjzJc/YOgivVpagn8pBdFpBYzo+Fx8JozNfdxukfUlFb3yPuz7PmPjS29KK9a0AKosSkhhQ/iUmLppZupGXX4txv2dh6OBlbjmRgw/40rNyehAVL2ViHiyhGpisLnMlrme7F81sseh88Hh76E96fIP8vezmKp6P8bpRgOBxHeH7s7VEduP7nN/w3/p47C/SZ69HL7B2b6pN/R+I4Xav8zs0nFF7Lo7FuVwq2H87C3pPZ2PNdAv4KLkDvyzemOykhMfkgxU9iUuDvv/9Gb98gHpa+QHruc6TltuFuRDVO/5wD3zUkVl5BZHhDFUP8H6Mt+bXIguikDcf/zCNPmu6Nh18U8R51UuJgSGgU9zL9QRNyC5tQUdOGV6+HTXdcQuLrQoqfxKQAD5FV1nRi57F0eK6Ix4LlmZi3JBmzF8XCnQMvyNBqfELIMwn7jwGW/JpUgmh4iNlJx8E0HEUahZm+MfBckgrt8gR4rY7Ciu1R+OFyJnnzvaY7LiHxdSHFT+KroKW1D4b4atyPqsL96DrcCq3G978VQ7eSow95WC6eDCuvuTMIA2uOWFReLRlhya9C05AxL59w4YhSE/leuQpGUqclFPMCg7ByuwG//FmCv4Kr8Oe9MpRXdZhag4TExEOKn8SE4c2bt2IeqPflINKzG7FicxQ8l0Vi4ap4zFoUI9bfuXnRqzYG7lrFeIrwfFPQiotXAhlVXo9nwQhLfgWy8PGcYDQ02gQliMbLKMTPmedQfcLoHoaLZSduPkHkwQfBQ8/zihH4ZsE9XL9fLnKkcnvo6x+i9jGMt2/fmVqLhIR9IcVPYsKQlF6LE+dTcfLHPBEcMX9xNGbwHJG/EW7CKJoDLhT+4+WRd6EYWyORvQqz8ZX86jTdGyWQiD125b6JwBgRZGNeOqEsLdGIwKJIOGvDsGxbIg5/n4MTP+Ti8l8PkZRagYan7abWIiFhX0jxk7AbXr0aRnVtF4rL2lFU3onj5zPh4X0bHmQERZYVIWRyGHOq0tkrjEQwBG66MASsM+D4uWSERD9GWXWX2LHiZd9rvJXLJSTsBCl+EnbDk4YeHD6VicD18fDfnIoFS+NI+Hi3AjJ+WhY9KX5Tmuw1+kRAozdgBnn/85YY4L8xERsPZ+FGcAkelT4TibYlJOwBKX4SNkX1k06EGSsQEfcUv9+shm6lAc6ewfjWi4fADOTxGTHdKxou/wxrSvGbshTzglFw1VEnyIfaCa8v1EdjVqARG/an4vvfCnAvogaJafV48LAerW0yUlTCdpDiJ2FT3A4twTfz/iTPzgg3XQoZs3AybkqKMWVBulGJDBQZRUYZQ0lJniektvKNZxS+4Uwy2ij4rYnE/u/CkZ1fa2plEhLWQ4qfhFV42T+E6KQn+OX6I1y4Wob1e9OEpzedgx98YkXWFZFJRQQ/sHGTHp/k5xgpvEAnHh6n1zmLSADXRmLvqVxcvlWN6IQalFW2YFDuMCFhBaT4SXwx+geG0PisFw3P+lBQ0o7txzPh7h9JQseCpqzxkuImaWu66mIxd2kSth1Oxl/3i1FV24PunkGxPIIzBElIfAmk+El8MfIKW7D7UBK2HsrCuoN58FqdLJYrKOJHhuqfpQmSkrajRm+ER0As5i+JwZJNKdhzvAhRcY3o7h6Q+wxKfDGk+El8Fu/f/43m5x14VP4MOYXPceGPYnh43YcrZ/7XxcHdlxlD4sdGioc5pfhJ2p4cGMMC6MJD6t5GzA5IwL5T+QiPq0N8+lM8LGtH/4DMHSoxNkjxk/gshobfIjo+DwdOh2HJ1gTMW8ZzeaEic4eHNhoaXnzuwxF7LHxsqOSwp6Q9yO3KHDBFn3XhcFsUjRnL4zBnqRE7j2fhyVMZEfr1oK6hZyl+Ep9EWWUP/rxbiz3Hk+C/JgSzyNhodCRsvD7LK1LsgM5ZWRSxGxnUMtJoSUraguZ2xsm0OZ9oBJypwzWN3jtRR8x7dRzO//4IN4KqcfN+NSqquk2tWELiv5DiJ/Ev8BDnwKthkW+x9+UQrt2vEzk1NVre5DSChM6SUZKUnDzUeEXDQ2vEnZBa9PUPY3Dwrdg1RMbESIyEFD+Jf6Gn5w3uBlfg2Nk8HD3/EMt3ZMKFd0oXXp6yG7glgyMpOVnopjdi1qIEbD6Yj0vXa5CZ+wzNLV0yabbEvyDFTwLv3r8Xa6aeNfcjOaMJ63cmQ+MZqgSw8K4KRA2JHs/xSfGTnOx0843BzCWJmLMkGf7r0nHuYgEiY2tQWNyF5y/k7vISCqT4SeD1m2G0tffhzzuP4b82EbMCOHAlFC66UHoNJ3JWfoPYrkbO50lOenJAjD4Orr4GePhHY+GKOPitS8PSjYUIjW4xtXqJqQ4pflMYPb3DyM7tIIPQgOvBZVi/PxUuXrw/Gw9vKl4ez/H9s9WQFD5JNdKUfIG3Xdp9ogCGpGY8fNSK5uZuMR8oMTUhxW8Ko7q2D9v3PsIMXQKcdMFw9g3BdN8wuJHouXsa4b4wAW6evLN6rBBC3pz0Q0SnpOTkpIY6b+5ewXDTRomNkcUegzyS4XuDvMEwzFmUglM/5CA1tRI9Pa9MT4PEVIMUvykGTgM1OPgOMYkNOHgqD97LksVOC7wjt4uOvD6d4vFxxJxGyxuUEsX6KhY9ztFp2eDYg4rXad4IlYSXr9G0jtCVBdkrhv5G18RDs6P+155UrumDV2xxKFgs9LdFR4E7HebjjDiXzY5vDbkOlPrnIXKeG3b2jqO/c3ux9PuJoWi/3GZ4GY6Xac2paCfBon27+cYicEMSdh5Ox+mfcpGYWo9372Qo6FSDFL8pgtdv3qKltR8Nz17icU03dh/LxrdzyWBpv7YB/ThZXDjQRkPCJ8RPx0JAfycj67MyDf5rMzDDnwNyJlr8IpTrEu/JsIotmiKJ5gTefJ1sbE3vR/3/l5GPxcdg0WNDTuRhPP6b6Ah8DUZiVoABcwMNcNfRvfFmUQmh+2CEs0+i2LnD8v9NDrpQ3YkdRqjtO8+/h0Ons1Db0IuXfUOmp0ViKkCK3xRBVU0Xzl7Iw04SvY2Hc7FweQI9/GQMqHdsyUBMDpq8OjJWGp0R7mRYNWS0ZviG4PKNMoQan2LRxjT63QR7GuKaWOjovCx8npGYtjCEGAznfwkg/y7U9NnCccZMFj6FLPyuPgZRH//kUp1AOmsjxLzw6p1J2HYwGQsW3Ye7NggeWromn1hM18dTmSf4fnwRlfviQvfFmejkHQbtyjhsoWciPfe5TJA9hSDFz8HBHl/J405cvf0Y/qvj4KHnoSmD6PkqBtWSgZgsZNGLEjt8L92aisNnS3H8/EMc/yEbd8OqcCOoBn7rUul3E2lsyWsQxlMRv2kLQvHtvLtYsT0emw+lYvYiRSBE3QrvzxbiR6RjzV9qxLaj2Vi9OwPuvl9H/Jw8w+HsGYZlWxOw+1gqdh2Jx4ETaTh5rhgnfnyEvWcK4bUqweL/Tg7yPeFOCQ+jc4YY6rzoDGJt4Olfi5GW04yM3EZUVLdhaEiuC3RkSPFzcLxof4Wj5wowd1EcGeYEuPnEwGke9d61bACItjDMdqOBvLwYLNsSg4vX89HY3CeyznCZvr9YhgWBiXDzVdJcWf5/ezCSDCYJgDhnNP737Fv4/2ZcxP2IUjx4+ByBm2PwLXmB03k+0iyAVtUxeyp0DF0IVu5KQHZhC+5EVIsQfmU41NL/2I8s7NMWhlKnJBIrd6QgMrYS1bVt6OlVMgJV1fVi25Eci/87OajUJy/bcdOSp+oVS2WJofo0YO7iGHguN8J3dSh+uJSFrp7XpqdIwhEhxc8B0dbxEnmFdYiMr8bP18oQsD4ZHPHmpo8BB6+4LOShKzbKEykaI8kGyGTUxVweGVMSZY1XHF1bGFZuS8Kf9ypxI7gGt0NrEZ1Qi6Ky53gz+Balj1/gjxuF9JtUKhPPLZmOZfE8tiB7V2YPi+eKwvGtZyimeQbT+e9h3e4YXLmVj+q6Djyu7saKHWkkEJEi2IKvS5mPtO76lMCacKzfm4KKmk5U1nXjVlg1NuzNhIsnXds/Q60jr9U+5LlNZegzkoQiFvtPZyE25QmGh5U99foGhpGU0UT3rlpw1/EsuJP3y50ujQ8PifL94gAm7nzRcUQdKcdWyvmBo89tO/L9Ma1b5YAuH/b8eDiZv4uAO3U0Vm2Pw7W7ZSit6DA9VRKOBil+DgTOX9jfP4gHhfU492s8lm5Vst+LNXoc7m3REEws2cDw7u6uZPiEAdSRiOjvYsGSJHgvy8SCgChc+L3wP0NOw2/fo7dvEFdvF8Fl/nXyXENJiHi4097lGnEOk1i7eoeRRxoM7ZLbuB1SZLpCkDD1YvXuPPo+Fm70G/6tk46HSMcvfnzvNMJQR2Hj3gzU1n/YteDa7WrM84+Hu54FhYSEOzbiei0fy9Z0IRFx9grD0R/y8bxtQAyxj0ZUbDX8VkVAvyoN2uWZmLUoEu6+IaYgJhZAk/gROYCIqSRL/+/5JpIevlFYuCSK2luZ8GiHht+bSiThKJDi50BoaX2JP+8UYsfRJARsMGLOEoOY0xBi89W8vA/U6KPI8EWTsTbCg7xQpptXKGb63MEvV0qQkdOGtKwmVJJ3wwm2R6KyrgtnLhdg8ZZ4IXzTTXlGuQevLMWwfE7rqQiKUo9GEuk4HDiVjuv3HiIpvRb1jV2mK7SP+CmeLS8/iSZPLxs1I8Svrv4lwo31YviRPXlnLV3rhHZy2BMmYVuXhP1nHyGnsN10ZR/Q1PISmQ+eEV8gIuYpDp9Kw+L1RvKuiHoDiQx5XeR58T0UnTS+p+TlWustW0sN3e8Z1E6XbUvFdxcfoqSy01QiCUeBFD8HAAvF06ZeRFIve9mmaDK8wWRwo8lgs9EmYTB5WpYe8omkRk/CR+LHQTc+KxKw9VAedh7KxL7DSSgsspx2invcPNd3N7IK85ZFYhp5GixGylouNpQsfPYUv2g6H9dlNBZtSsex74sQk1iN+oYXGB7+t6djL/ETHhJdw/p9LH4vTWdT0Nn9Br/fKicjnQI3nRK+b/k4diJ7nNzOvOPx45UKqoMesZOCJXR0DiAmvgI/Xy7ErmMFWLs7gzppiZgTwGtJWbSVtiqGwr+y+Alv38so7v3MQAOu3K1A9ZMeseOJjAh1DEjxcwDwXNjvN4qhWxmFmXr2hkYaDsV4/zN09xUp1lbRtWm87mHHoUQUl7WjsakPz0i4BwYsr7Fi4/7H7TKs2JGE2QH0v0JIlGFcNpjOuigSJjsaSmGMleP/fqsCzc8H0NP7BoOD/zWC9hA/ZXsegxgOXL8v41+eH+Pt2/do63iNiLhaaJfTeciTtnQce1EEG4lhyxh4rUrGnpP5KP/IPnp8rT29r9HaNkAdmgHEJtfh9C/Z0K8h0eNODXUwxBygjuvOjvd0zOQ2FkWdiij4rE7AsR8LUVvfI+Y3JdQPKX4qR33jS0TF12P9njQ4LySjYbHnb1/xM2c7+eccZLhcyWBo9LweLU6IlIv2PjbsS8OPf5Tgwh/5MMRXkYcwaCqFZZQ9fo6b94qwdk8yZi8ywkPHIqCcQ/EU2CPjOSNbGEo+hvk4fGx6LwxxJBZvTcEPv5egqOzTwQ/2Ej93IX6RVH/pJH49prP9G/WNvOlwCTbtS4K7T7DwFkcGkow+ru3I9UTn4KFLoufyBLrHpcgpbLU4BzgSjc09yMhtwF9BZTh8LhuBm4yYt0Spd3FssQZVec/18DXmAfmc5vP6rUvG5VtViE97ioKierxol7vGqxlS/FQMdjwiYp9AuywWM/ziyauKUwzHBA9xKuLHRkoZfmRvQOMXCXf/GLj7pZG3xhGmfyIossx05WPDb79nwmXmb3DxDKLjGqHRkpCKJQSWr8M6cr2ZPQ6j8krC5ayPwpnLj8YU8GDXgBfvCGykzgN7Hp9CCNXxHN8b1PEIEV7xSOM9EWTP/tsFYdh1PEcsSRkrKmpacepCHJZsJE+L7zXP5ZLgcVANX7/oANBnS+ecKLrqqAPmn4zFmxJw9EwEHhTWma5eQo2Q4qdSPH32CjeCG7H1UD48fGPEgymGN00h5JYeXnuRDTQbKDby7Inx/JhGb8TCZXHkrSTj+98eIMz4GHUNH4JDxoLf/yoho8fDeBzJyOKXQAYx9j/ntw0V8WPhFgufib7rk3Dp1mMUlrXj3agAHEuYDOLHdRxurMDGvSnif5Q5ufGf/0vJC+89fI0kEKk492sJcgvaTFf2aXT3vEJRaSOSMxsQEl2PjfvTRRSrqzcnpjaI+vzaQVvcxt2ofHMXxUC3Oh73IirR3vFS7IUpoT5I8VMZeN7kRdtrRMU3w3ddDjS6BDibesjK/MtXED8Rcclzb7z4O5yEOBK+a5Ox82gOrt7KRX7RE7EMY6zoHxjG06aX+P5SGXm0CZiuV8TIVRtvZ8+PhYrEgs7nvSYJx38qQt3Tl2O+9skgfow3b97i2u1yLF4fjxkB3C44YMby8W1NjS4acxbFiaQKHC35550qMULxJeA57OtBpVSXyVixLZuEJoWEkJdGfF3xm87z1dQZc/aMxv9dkIRjPxYhM7eeOhwd6H35Cu/fy+UQaoIUP5Whq3sQv1+vxrLNmXAPiIGLjnv2IcLQil6+eFAndnhIDHuSYeDFzxqvYCwIuIfrd8tIDLrxrLkbPb2vvihCLq+oFbuPZUK/lsSOev+824QtFot/nlxvBhKMWFwho83BJa9evx2z8Z4s4sfRv8+a+2CIr8fSzfHQTKD4iSFKEkCx9lAfist3SkWH7UvuP19/0/M+lFZ2oORxN92LGsxZnCSSNFg650RSQ+2cO5rT6L3XynjhYZ+/mI7EtMcYePXpOWyJyQUpfipC3dNehMc+wcqtWXDx5Az6JHZit/WR4scG3H7ipwxxmkhGTsPr9nRR0K+Kx97vHuD4+Rz88EsGyitemK567HjZP4zC0k4RFDPDVxEPJY8me7Mm2kQAFZHjV2W+kj1mHraNweIt6Tj18yM8etz5RQabMVnEzwzexePP22XYuCcVM3j+T5TR8nlsSaVOw+FMbXPf2Ryk5bSgtW38++Y9etyDs5cqsPlAGvSrIzAzgEcClPvH95FHA5TRB/u1ezNZ3Hk+mEc4eG2lB9Xr4g1R+O7HDCSkN4gRCwl1QIqfinDt/mPMXcK9an7wleASRQxsIQhjo0iT5mWEOxkcNw5oWWzEbH8DDpHwPXn6Ei/7BtFHHE84OK9h23a0ALMDeQ4zSIiHpWuwnlR3XhyFqoiKxidUDKm56ONx4VolunsHx5XUeLKJH+9RNzAwjMiYOiwM4JB9MtrUYVGSHkxEm4nETGobfuuShACOF8PD70XHKC6xCIdPhcJrTQyc9XFUr5yeLA4azyRotLy/o/3FbzT5/syka1m4OAH+6+IQFFVtumqJyQ4pfipAbUMPboVVYMP+dDHkovR4J/5B53OKBeYc9eZrhOfyaKzcHosLfxQhg4zbq1fjm/h/+/YdHuQ34MLvufBeHW/yXnl+x14Gmo9v8hxMnlDAxhT8eLUcD4rbhcf3hU6fwGQTPzOeNPQiKLwaWw5mwE1Px50A728kPfyoc3QuF7HJT9DVPf5k0Y3PXiAzpwLBxlqc/LUE2pXxImnCv5+F0Z/tTx7yd6M6neFrwNaDabgT9AhP6r8suEti4iHFbxKDe+6cLSMstg4zAtiYshHlZM7mIR/LD6Pd6BNNPW4jZi6Jg259IjbsjsX5Cymoqf1vWqsvwes3w/jxYhpm666TFxaiiJ+I6jR7t7amEhyk5JQ0YIZ/PA6ee4iGZ71WRe5NVvEz41ZwJXQrlR0MnCe0/XByghCs25OAorJWvHpt/aaxxeXt2HYkAz5rDZi1JBTu/tRZ4gw3vKzGbu3GEqkdaYOIvJMHnXdBMOZ430JUTBX6Xw2LZ1hickKK3yRGc+sA/rhdhbV7MkVeTEXwvpLwETl91pzAWOw/k4/U3BbkF7WgsuoF+vremK54fOCgklM/5pLhuE8GhOf1uHxmkbd8LVbRNFc6TRtGHmw09n6Xhai4GnT3vrYqYm+yi585IcLKHali5wlL57MbqeO0cLkBu47FwhBf9kXRv5bQ3fsGD0vbEBJdhbO/5mLVrkzMWZJCz0mMaeTAwjXYhSS4Wjonp0KjdsXt10MXQV52Om6HVqKtY/xznRL2hRS/SQiOdmtseYXIhGdYvCVNGI6vJXgjOX9pLHYczSED2iAi+GyBFx1DyC3sxrZDOZg2P4wMCZfTzj13IX4hcPIMxfxAI24FlaL2CW9eat16rckufozOrje4fKMcy7amiOFIS+e0B3nD2Om6SKqXWzj/W7bNUoQ1c+Ls7KfUSazB9uPFmLc0gerb8jXYi+xpmlOz8egMB8XM9IvG+j2piE+tQfPz7i8OnpKwP6T4TUIMDr3HlXv18NuYjRkBZDRGRjsKcnTiBPfciSt3pCEz77kICLHVs2xI7ID/hlLqtceLff04gEF4ffYMeDF5fq7aCASsSkYmebFvLOTq/FKoQfzMuUAj4xpEqL6lc9qDLlQXvAPEdG0czl18LIJYbAEOTOI0eW2db5CW24ql29KFEFm6BruQnkdnv+tw9r1F3l88nD2j4LTwDrWtSMwLiMbyTXdxKzjXak9XwvaQ4jfJUFPfjSBDNdbvzyUB+LD5pyJ4ZrIxtZX4Kb1/Jdyfz8PLC9hQ0fG1RqzemYkLV0sFg6LqhOG0BdraB5Ca0YBDZ4rhrGXvlgNp6PzevJaLBZ+Xb/BnS9f8pRxZV0q0o5suDFsPZOLmvRo0NvWbrso6qEH8zOAh0Gv3qrCR2hlvMis2chX1bat2NZrU4aBju3jFYv3eHARHVVNZLCfAHi94OcXdyDpsP5qLGZwHVjw7vC5PaVOuIuepjTtUVGcu+tvEe6JszloSP07HR+LnRuWdob+DbQdjEBH9GE++MMORhH0hxW8SgR2Pu5EVZCzv04NFYiREQHmALT54VpOjN9kwkIHlcH/2tnR3xfldeO5tQTx+v1FrujrboqCoBSs3RmGW3t67EHD9cV1yHSpDqu5k6GfrwxFusG3Z1CR+ZtyPbIKHbwZ4uyneWFhpd5avxRqa1+Hx+jgnbTCc5t5BUESlzUYQRiI++RkW+sWKuTdXus/O3gminWv0N6DR3bN4ffYgp3rT6GLgQW1h5oLrCI8qt0t5JcYHKX6TBPWNfbh6twrr9mXQg8MGaOTcl73Ej40rM5Ie1HBMWxiM/5kXJHbSXrM9E7dD6lFRbZ/M9Q8etmLR+ni42VXYOWiG61FZ16bsFB6NzfuzEBVbh/qnti2bGsWvpr4fwdHPsHZPDnV4zO3N9tR4KcmqRe5UbxJAzwhs3R+L+0HZaGq27Uaxz5r7EZfUiDBjLX6/XYpFm3izX/L4tSSGXvZ7lv5D9qZZgIkedP8270vE9TsP0dhk23soMT5I8fvKELk6218hgudgVnEP1Sx6TH4/6oGyKVkQwoXw8YP6P/NCMG1eMALXpOL3P6vR3WN9SPpo/DPnFP+UyptE12Avg6uInxL2TgJCZZ3rH43FG5Jw/V4Vhm0UsDMSahQ/Dq7q6x/CqZ9LqCMSK85n6TqspSgDiyuJHwekOPsYMdPnFtZsvI3iR89MV2Nb8Dzuk6fdOHOxAPo1idSpS8R0T3slRv8veZjXme+/nu6jnnckCYZ+ZTAMCdVoa+/HWzkP+FUhxe8ro6vnDf64VYYV25Ixy09Jt/Wv+T0LD5XtyHkzw8gQ0UPqHSf23PNefhfBkZVofDZgs6CEkejqGRTis3p3Btz9Y01ib+narCMLjjOVTQQ/cBYQ6vGv2JKImKSnaGrptzq4xRLUKH6MV6+H8evVPGiXhcBdb6dhT+5o0T3gbYnYAxdJqj2jELAmBQXF1q0T/Rh42QqXjdMC3gqrxZylyXAiD9TS9dmH1AHjeUDqhE0zPdez/SOwYrMBV28Wik2RJb4epPh9RdRTr5TXl63amULGIUJMkLORUwJPmGyIbDVMw8fh45mPSeJAxugbzzDMXGTAok3J2HEkCRevZeFJg22HocyobehCWGw11u5OIyPLoeG8INlO3i3VnYs+lMSd08ElYsPeTFy/Wy52EbcX1Cp+Q8PvkJRRjeM/pMJzBXvKHJhiPr8Sui9yWlpBbt9MIX50bB5tcNLy5rWpuHK7AmWV7RgcR0q5saLqSS/O/VGO5Tuo7em4TNzu7DXqYCYdnzpeziS403gOnTxeDedY9byHbQfiUUgeb1e3/dqjxKchxe8r4lZwKbyXhcHdjz0VU4/4Pw+Qrcg9T8UgC9JnJ89I/H8zw+G7KgYXLmcit+Ap+gcGbbaGbzSu3ivCrMB7ZPhCxA4QivDZS/zIwOnDiQaxI0BkfCMG7JxxQ63ix04wDxEWlLRixa5Eut5wEbUotvCh87oJj+2/12YtnejYXD9zA8Nx6kIuOq1IffY58DA35we9GfQYc3zD4ObDC9N582e6Fivuz+dpqX1HYMnmGFy+noni0kbTFUpMNKT4fQXUPOnGX/fLyZil0kOoeHocCGB38aOHTgQc0MPu5BmOhUtj8N1PRQgz1OAh9ULb2vtMV2gfXPzrEfWCgxXh+2cxu73Ej0i97Bl+kdCvikZqln3mlUZCreJnRnvXaxiT67H/VC6cF7AABsNVR6T7pOyjaNt7JZY+cJskrtyZiKCoYlTXffluIF+CiupOEsByrN2VADddCLURaoO6iRwK5XsaiQVLDdRW4hCVUCMjQL8SpPhNIHiCm3c8CI6qgqv2PpwW8oMfK3ra031CycgpQ0yWHhhbkb0tZx+DSOu19WAGqmq7rErpNRYMDb9H78sh/HiljK6Bh4LIkApjakfxE8c1wGt5JLbsi8SDQvv3sNUufmYkpDZiYYAB7voguOjvUpvh+8UL4m17r9ib5GFQJ59YzCExWLMzGFHxpaarsB84l+xv1zLhveIuPPw5ocLEBcEwOZralehEHbQL10rFvL89h3wlLEOK3wSi+flL/PFXHpZv5uHGa/if+ZzFhAwKG8d/5vfGbyg/S3EezrIfg5+ulKLwURte9g3ZJfhjJEorunD+cgmWbUtVruGfa7KX8JFRpfPM1Efg5A+5KCxuQkeX/edWHEX8nr8YQHp2M/Z994DOz0OfylIRS9dnDbls7FVyRO4MPwO8lxtxN6zKdBX2A2dbqa5rw73wRwhcF0r3auLW/inkcivBbYGbEnDypwcoeWyfoB+Jj0OK3wSBQ8rLq9qwZrsB3879C//vjOv4Zv79f4mBYiRtZ2SUYAWzN0lepleo2B1973f5KCzpMF2ZfcHCmpD+DNrlseRt0nVwGc0cdb22IJdVQx0K7xVx2Hk4DQkpDaYrsT8cRfzMuHz9Mdy0dA3UbqZ7M7kctrxvinfOrxofg9gX7/TPJSip6ER3j/13RW9s6sKFS6lYsy0CCxZzp5CHYZXy2XMERkm/xveVzqUNExs3c8R3VV23SPIuMTGQ4jdB4KTJxWVtWLUzlUSIDKJnGL2yt2f5AbGGQgAEeR4xXPTc+SFzWnAXZ3/Nx7OWAQyMc++9LwELH/eyY1LqMTtQWexr6XptQV47xkLPi+Zn+hqx90Qe9aY70PvS/kbUDEcTvz+uPYSH520ShPtw8gmlcvD8tIk2FUGFnBFl4bJ4rN2TgZxC+879MfiZfNH2Eoa4CmzaHQ3PFTwfHi6GJHk41tI12p7UOaX24bk8Bke+z8PTJvvOu0t8gBS/CQBHT+Y/asOv18vgszaJjAcZNGr49uxdKsMqTBbBSPitjcN3P+UiK6/JdFX2ByfA5uGz7y4UwN2PjabtDaaZLH48fDY7MB57Tj5AZGy9WLw9kXA08ct+0IhzF7Lgt4ZTk3F5qBwcSMQU4mef+zl7kRGhhhqxDGD4rf3nwhoauxBhLMPpX7Kwcmc85i02kgBOlPhxu43ENwuDoV0ZjUvXi1FU8kKMFEnYF1L87AyeTuOhjLOXHsHNzwgXHe/7xcbMnuKnDCdxMM10okYXiQNncjDRe4tV1XZj8750zNB9GN6yfL22oZNPPLzWZiMu7Rl6el9NeCZ9RxM/RuuLARw+kYXZdH6en1P2WSQKIQyn97YXwJn+BhKBIpRVtGDg1cR1YIpLnuH3v3IRuIkTylu+NnuQxe9/L7iH/zXnJqbNvoWz1EnltZdS/uwLKX52Bm/4euZCLhZvTIarED72UlgEzNGOlh8I66iIjcYnAl4rovDLn8XIK27F6zcTM58g9iN81o3ouBqs2J4Kd18uq/12ZnfxioSTNlwsIF6yOQXZ+c/Fjuz2DuQZDUcUv1evhlHwsBUXfi/GnMBokRjB3uLnpo/G6h0Z+P1GJZ6/mLgOW0dnP4pLm3H1dhE2H0gRImzp+uzBadR+v/UMhZNnCJU9HrfuFaKqps10ZRL2gBQ/O+HNm3d40fYal649xLS5f8F5IRlD0Wvm4T/u7bEY8GfLD8PYyCJn9qbMr9xDZ6NphG61AQdOJ4tAm4kEb1SallWP0z/nQr82CW6+cVRe0z59/1y7tfwwrKuIXwT81sTi+LlsVNbYJ0PN5+CI4mdGdn4zvFdGwFnLgS98H+0nfnxv3XwSsGl/IdVpz4TmwORlEKXlTeQBFsBzKdc/3T+7lHE0ORctL0OKok5GOJasDUF8co3pqiTsASl+dkJ9Qx+uXqvCmp0J+B+vP+HkxdvFsECZHyRrhwHNuxYwlUXIwkj6BMNNFwp38jJ/uVqC6roO9A1M7NzXm8G3uHSjjMQ3DjP8jXD14bJaW14zlbRorqZdAlgU3HTR8PCLw8Xr5ah90o3+CS6vGY4sfrkFjQhYeR8a7X3R7sxzyZau2RbkOly9M4dEtwU9va/F9MFE4N17Xov7BompNVi05j49R3fgRPdRXBPdh9HXaWu6EN30kSIHaERsnemqJOwBKX52QnFpB7buzcL8wChM874HZzaGoxq6dVTET6QIE8aVJ+lJFHxCsGhjLE788BB5Dyd+2IS9vo7OARz/sXDU9dqOyrCxIoBshAM2pND5HiGv6OuulXJk8aulTtTF37Owels8pnM7o+uyx9q/DzRAvyYJP18tonbcMuEBILVP2nHpahbW7oyFK+cCncA5QDNP/1qE/OJWdMsE2HaBFD87Ia+oFYs2xcGNvZSFCWJXdEsN3GqSgXXhTBxkYDnakcPRT/xciI6uNxgamtiAD8bLvteoqn2BA2dyLV+v1SSDS2Xk4SEnqlsnEpqjJHzPX/RP2Jzmx+DI4scRy5z3lXfkcNOy+HEnxI7ix0sOqP48dKH48feHdtlh5FMwl/fW/VrM9kkQQWPOdC12LfMozg2MpnueKhfA2wlS/GyMvv5hxKc04+j5h5izlPdHi4JGS71kmycG5mOyoPIwYAQZimjRU/7hjxLkFLbaNYHzp/CwtJ2M1SMs2Zw86nptRRa/cBK+SEFXfQTO/vYQr18Pf/XwcEcWPzPyH7bizIV86NfG4n8WhpoCYCxfu1Wke8xJGb5dEC5yjdaQJ9b70n6Jrz+Giqoe3Lhbi1U7Uui6ePRm4sRPozfCa3UCzl/KRWZuHbXxrzOc76iQ4mdDvHrzDpW1L7Fl/wM4zTeSVxJDDzEvvObkwBwcYLmRj4ccdq7xInElTveJxfzF8dh/Mg9Pnr40Xc3EwrygPSiqHrMC4uFGD66l67aeHDBEokLvNb5R8FoZjss32TP4+rkRp4L4dXVxROQzbD6Ygv81J0gEGlm6bqtJHTpOAvHtQgPW7U1HREwZte2vE8jES5V+pg7dwkAj3MWyHQvXawe6+sbDfVEC5gXew6mfUtDZPbFLlRwdUvxsiNj0dmw/WU4GOZmMn2K4lLVRtgr2+ECxN5pPCHl84SI5789/luFReSf6B4ZNVzOxGBwcRntHD36//RjOPhzdaa/gAPb8OFtMHBZvyUFwdC0JAifn/rpeH2MqiB8vIWlt68PB0w/wzTwqm9ZenhDPZ3MHMhLzlxupXpOQlPl1tv/haFNes3onrBp+65MsXKt9yHOq7hz96R+PEz+WoLNr4rIVTQVI8bMR2PT+euMJpvmkiuEKdz15fKIBmxeb20IM2NCYjQ0PC92DdkUUNh1KR+7DVuVCvhLaOvqRklmHA2dz8Y3WAGe7Zchg8YuEh28cth4uQG3D5EkHNRXEj/Fm8B1uB9dg1fZ0zAmMFUPuSufOlvec14bGwFmnpBxzpvLfDqsSSxEmOnmBGZx67PzvJVi6JZWebw4u4+u0l/jzdEk43MiznqFPwY6jJcjOb8OL9okf+nVUSPGzAXjIj7cFunijQvRWOX0ZPxg832cro6DkruQ1fMraKmfPCPzP3FDsPp6JjNx60Rv/migua8fm/emYv4SEj+dr7GYUWPwiMCcgHHuOpeFJw9cXAzOmivixl93Z9Qap2c+xcmcm3PQsVMqSG9sJ4MjnRqm/SzdK8ay5W8zvfg3wtkOt7a9wL6IOCxYnwN2Xn0v7zQNy9LZGGyM6FwuXx2H9nmwYE+2/L+VUgRQ/G6ChsQ+hUQ3YcjDHYiO2nsrwKQufqzfvgs7DTRHwoM8///EQbe0vqUf8dSbD2ePltVHZ+a3wXcNDQpFkEEigrTD4nyJvhMudgH0nMxEdX01GePLMg0wV8TODhwK3HEzDTH8WKXtmLFK45UAGbgVXkAB+3Y5eVW0Prt6uwupd6dQeqb3bPJhNobKWlef0I6DxjcTsRXHYf7oAhsSneNbSb7oaifFCip+VYK/PEPcMLnNiMW2erXq9/yb3AN20HDkaRob0Hr6ZHwo3rwj4r4hCUFiF6Uq+Dt5T+d8MDiM1pwU+a1KF58teqqVy2IJOCyLEZqCxyV9n/udTmGriV/OkE7uPxmNeIHs/bKSp/ZOhtpcn5DQ/AroVCV9l/aol/Hq1As7zqb1r7fXcs/hx0FyEGP51ovp1Js5dHIPEjIlLUO+okOJnBdraBxAc/hg7DqVhuhf1AO02+W9a0E5G1EUXRoY1Eut2pCHCUIO6+m7T1Xwd9PQO4n5YFbYeTMeMwEh6OHm9obIEw3JZrOPyrcn44bdClFdOzH6EX4KpJn69L9/gQeEznPvtITR6Fj+6Zvb67SR+br5GLN2WgYKS9gnP22oJRaUduHzjMQI32mlZjxhB4XZk/puyPyfvOpEkxc9qSPGzAtW1Xdi0KwEe3kFw1Ydgup32qxPJsHVR1PuLhJtfNJZsSsbv18snZMPPz6GldQDbD2Tg27lBmOZzn66RjL2Nh8DM2TU49dPR7/NQWNw8ITuzfylY/NaYxI/Fig2XM9Ga+U9F/MgDoGNMNvEzIzalUezELpahCNpH/GYExmHprkwYyetvbRsQC9G/JjjCueZJN3adeAB3Pd0jHafyM3f6uA6srAfeQ1GnpEUU2Zuobnl/zrmLDLgbXi0SOwwNff0lPmqFFD8rwHMea8kDc9VS70xH4id6vRYasZXkTWDd/ULFOTxXGhAUVYvGpr4Jz3phCc9fDGDXsRzyeln0zF6Obbw+YfhJRN109ODrouGsjcKFq6XC4+AtXyYbWPzW7s6la+b1l5x6jecnORG0NZ0iTlvHQ96c7SODxK/XdLbJg/iUJ5jrdw9uXvQcaEkE7RTp66qPxuzFMVi5IxlXb5dP6EbFlsCBP83U+Tt5oQzeK9IxNyAZHsID5o5PBD0L1nYE6H/FMfg916kiqG7UEV62JQG/XH1I55dzf+OFFL9xgLOncLb5W6G18F2bInYVmO5jP/Hj1EoevhFYvSuZjH8RaidJhGMdeSFhxjoyRmkWr9taiuw41JP28IuFfl0Kdh7PRXza5B3uqaztxYa9D+Dmw/kvFe/PzTtEiKCl8o2NLCaK+G3Ylz4pxa+kvBXnfsnE8s28vjWertVegS/8nEUKL/jg6Tx0dH79sP/evmEYEltw+GwJvJakkvhR2U1p0ETeXYvlsJ4a8go5aX56TiM6ul5NWOJvR4IUv3GA1zn9dLUccxaTkdMbwXkmxdi8VUbu49T4GODuE4dbIbVix4KvPdxjxvW75Zi/KBLuesvXbT0jyeOLwuzAJOw/U4zSio6v3tv/FKpqX2LzgQLM8E2yofixASWDSh7A+v2pqJmEw56cXaevfxAXr1djVkAKeSY87G2pLLYhe9UHTxeS+H39hM/s/fH2ZamZLQhYkSjmel309+k6jdQGEujVTh0BEj/9umj8ejUP+Q+bJkWSB7VBit8Xor2zD4WPGrHnRI4Yh1caI09Ej2qcNqTPqgTsPJqLjNznpquYHPjtrzK4eJK3a6f8jjxs5MJDvr5xOHi2CE3P+yeN8FuCfTw/ZfiXPZ71+zNI/Caf52fGlbsV1FExis1oLZXDWnI9iCU/VBfLtiTj2q0KlJZ/nZRno9Hc0o8IQz12Hc+mdssjQDxPZ7/AL/YsZy2KxrKtcbgd+virLfxXM6T4fSHKKp7jj5u5WLWNenlePCcVLoZhOCJPGCkLDdVartiegt9vloidIrp6BicNz/9eCictPYh2WufERoQDaHgOadexfNQ86bV4HZOFDx62YeW2TDJ65PkQOTJP4x1Kr+MXPzH0y+99orF6dyYKSzosnnsy8JfrDzErMITEzz4jIMo8KgmKLhQz/MLgtSgG125WWLyWr8Urd6vAqf343psTUlgqi7UUqd+00fg/c4Nw6FwudcrfYHBQBr98CaT4fSES05qxZmcmPJfG08PIxknx+uwlfMx5S2KwdGsyth3JxuHvCyYNF21MtpvwMcW8CZHfe69MwJ6TDyxex2ThtiM5mLc4Tog1D3cpbYOFwDoDaB5VmL80DtuP5lg892Tg4s1JQvjYMxtdBtuQPT+qW58IMQ8+kzzM5VtTLV7L1+KybTz/rdgCvv//LYOtqASA8Zpf3Zp4HPuxGHnFcuujL4EUvzHi5ctBPK5sx89/lGNWQLIppZOlRikpKSlpf3Kg3bSFYeKVg8LCY5+arJXEWCDFb4woKXuB3fuT4LM8GpoA6tXZLchDUlJS8vM0ix+n/OMtxEJj6k3WSmIskOI3RjwobMWiVUrmDldfew7tSEpKSn6eLH4sfPzKi+uP/lCIlKwWMf8n8XlI8RsDOH9lTmEb/NalQ+PD2TZ48bIUP0lJycnDGX5GrNqRjuKyyZf6bzJCit9n0Ns3iNCYCuw8kY45i+JI9DjizH7BLZKSkpLjoUYfjsXb4lBY+sJkvSQ+BSl+n8Hztn7sPJkMJ697phyNvLaPKQVQUlJy8tBFFwrv9dGITqzDC859Ktf+fRJS/D4D3rxy7+kckV9TCVknyvk+SUnJSUZe++fhF4/lWxJx9WbJpM6GNBkgxe8TaHjWDUNiLdbuTYdGZ/b0pPhJSkpOQnrFw0WbiOmeEThwKhsdXV8/9+lkhhS/T+BeRCn814VidgA3Ljvl6JOUlJS0BUn8pmuT4OxlxD5O/N0loz4/BSl+n8CVu6WY4R9KXh83Lvb82OPjVznnJykpObkocg0Tp3mHImBzDH6/XoxHMvjlo5DiZwFDQ2/R0/saP1wpETs2KFuTEMVwJ71y7kbpCUpKSk4icp5hV+8QfOtzh+zWbcz2CcKNu2UmqyYxGlL8LOBR+XOc/jkFizfFwkXkaRzt5UnPT1JScnJRWXscAWfeVom8PzcSw2t3H5usmsRoSPGzgIS0J5i36B71pILJy5PBLZKSkurkyQuFKKtoR3ePnP8bDSl+FhCX0oxZfklKA/IJpVf7bNEiKSkpaU9qlxmwaU8C8gpbTNZNwgwpfiPw5s0wGhq7cO3eY3j4xcFF7NBuvz25JCUlJe1J3lJrweJoJGc+M1k5CTOk+I1AR+cAjHHlOHA6Ba7+IXDWRZAAyvk9SUlJddLZ24CZixOQkNGMv//+22TpJBhS/EbgaVMPzv6ShYD1JHb6SDj7RBMNpmhPy41LUlJScrKSA/bcfI04/mMmeX+V6Ol9ZbJ2ElL8CNwj6uruQ0buE6zeEQM3Mc9nJNEzCAF0sdCoJCUlJSc7XbyUKFC/tWE4+2sqnrX0mKyehBQ/wtDwW0TF52PXsRB4Lg2HRjQcI5G9vv82KElJSUl1MAIan3DM9jNi99EHePL0pcnqSUjxI7wZfItfr2XCc9kteOh5oSgPcyp0tdigJCUlJSc/2evTML2M2LTvAWrrpfiZIcWP8ObNO3x/+TFm+MUrCax9IgSVhsMNyHLDkpSUlJzMdPU2kPDFCFu28UAaaht6TVZPQoof4TWJ37lLJXD3NcCVlzdQQ2Gy6NlW+EzepA+TziU2xuWGya/m9+bPI99/6ruR78f63ci/8XXw5zi4evFmvbHUATDATR9NpO//iXZVskdYLtfY6CICiMzHioQz/02cf+S1ma9r5OePvbf0efTfRn9v6+841R2Ty2W53NaQh9054EoZfueRCLo3dE/c9VGio/bpa7PHdyPff8l3/Gxxu+fniuj137LajJyYwjNCzHdxezM/xyJ4zcfStY3+/LH3tvjO0t/oPc/N0XW70rPnau6Ai+fEQvm+kIoNi4TP6jh8f/EBsvMa8f69jPyc8uLHQ54tL/px/KcH0OjDxMNpqQFZSxdq2G7UqBcuj4f3qkRiEjGVmG56Nb9PM73n15Hvx/ud+T2Tf2em+e/JyvuVWYI+KzOhX5sMr1UJmBkQTwJoymMqvGHr1jyy8XGih1t5sCPgRIZp5iKuD0vXPZ7ymjnyb/z6qWOZ3zPHc056XZkGr5VJmL80VnQaLJV9vGTh43pi8fOgzpl2WRJ81yTBf0M89PT6xdf6z3vmOMs7ruOnwIfavG5VHOYvZm+E2pG9sidp6bgLwkTnarq/EQuXxdG5E+C5Jhna1Smm6xl93bYu7+jf8Xcjvx/x+5V0TSvisXBpDDz8Y+GqJ5HWhZmek1Fl+2Lyc8vpzui9VwRcPW/j/MUcvH0rN7qd8uKXU9CEw+cy4L8uzo5DnOTleAbROaJxL7IamXmtJr4gtpleze/Nny29/9R3/H6s3438m/nv7f8wK/8FrgdVwWdNIhlz9vyoDNwpsLI3yr1wRfzIayG6krAe+r5oxDWYr8v8fvTn0e8tfR79t9Hfj+c78/uPfPegDSlZLaLO/NaZMgPZiMLzM9X94s2JCI5+QvenFdkFz8Xrp697vN+Z33/qO37/Jd8xW5GV9xw/Xy2Eh99t6mgGWyyztWTP0o06au5+Rug3pOFGcI04dwbVV4bFazO/H/159Pvxfmd+P/Jvo37z4Dluh1VTxzMRziRSLtzRtFFHXAgftR9XOqYHHfOny4+k+BGmvPgFRVWRRxYMN68ouGl5+MH2w1e8JVLgRiPOX8rBs+bJPeb+7t3f6O4dRFxqI3zXJZi2cyLaRPxMnh95Myx+PHR39U6F6czqBa8dfjP4Dg9L2rFyR9p/ym0dlXp3pd77xv2pqK1Xf6h6/qMm7D0dR+3L1LGyMTVUX+76MMwgr2/Z9iw8LO00nXlyo6yyE0u3JGCaZ6jS4bFQti8njxpwhzOcnmUSP50RJ34oxJOGTvT1Te18n1Ne/O5F1Ym5KBY+d88Yu4jfTHoIbwRX4FlLrxhmncx49fot8otb8fOfjzB/CQ95chlMcxC2GPb0iaGHkcTPm4yTzz38ebvYdGb1wp7ipwRdcbh6KIlfikOI38CrITS19uLMxSKLZbaW7OFofIJEBytwYwYKHnWYzjy5UVbZTuIXTeJ3T9gkW80jc5pGTnPmKjpRkVi1Ix5XbmSjvPK56cxTE1NW/AZJhNo6+vHHnXLRODResdBoOehj/L1R7q25CO9IabiiwZHxmr3IiJjkp3j79t2kTzHU3TOIv4IrsW5vOmb4GUTQgFIeFj0u23/LPXZSL5TqmuvIb0Mszv+WiweFTaYzqxf2FT9qm0IAyfPb5xjiZ8Zvf5VRGblNmUcUzB0ra40+B9Uoz6H/xlQSv3bTGSc3Wl704WZICTYfSoWGpxuEAFoq3xdSiJ8SaMR147XSiM37E5CW02g689TElBW/7p5X9FA8w5lfH1APMYwaBe/dl0iv4xc/Z104nHQ8ucwRjAZxXF5gOndRDBLS1JFY9nnbK+w5+cBi+ayl2YNx1gdhz7lMtHU6Rqol+4ofecnUIeO627gvzbHE70YpGWYO7GDyHBcJFhlq6/fLNGK6VzycfYzw25SMvEdtk77TyeAIzKGhd4hKqMcMf46OtVQ26+nua8TsxfGIiH9qOvPUxJQVv+q6Lnx/uQDLtyYqkWf0wLnwQ2PFQ2cOqTb3srj36a6PhnZZIpIymk1nntywp/gpQy/hcNGFYO/ZLCl+Y6BDi99f5RbKTM+iGD0xe4HjobIEhJPSe66Kx19Bj1BV85yEZXJPOXA7YgGMinuC6Z7USfTkaQZL5bOOGr0RHgGJCIuTnt+URF7xCyzenAAPfSTctIrgWTvJrNEa4K41kqHiOQdmNPRrkrHraD7yi9Ux9GJP8RNBMzru3Ydg32kSvw4pfp+jI4vf/cg6BG5KxexFcVRW9vaYLH48EjP+Z5E7njxUzPNmsxYbsfd4IqJiStDfP2g68+SGIa4O0+fehfOCEIvls5o6I1z9EnDlbhWet/bhzZvJ3SmwF6as+OUUtsJ7dRxctOFwI8PCjcLaJNYaDprRxgoPx00XiZl+8Th7sQxVtb3ofTlkOvPkhl09Px0ZcvKEXb1CsP+7TCl+Y6Aji19jcx9iUp5i9a508O4DthM/ev68Q0Vni9fMaRdH4Pufc9HV/dp05smNuMRazPG6TZ1y+ywFYTs3zceIVTsScelqHuqfdpvOPLUw5cSPQ/l7Xg4iJrkRC1fEwpnEjw0Lix5HI1pqLGMle3xu3jx/wcN7UfCgBvbn7UrTmSc/OAiohozrjmM5FstnLXmhv4Y8P93KcPx0OYeMkRS/z9GRxW/47Ts8aezFtiO59BzSs0flNE8bWCt+Gh/2mvi5JlH1jMCBk7no6FSH+JWWteL8hSws28wesbkuzFMpXD7L5R4reY+/aV6xmOMfic174lFS/sJ05qmFKSd+bKTKqrvI5a/AwuXcuCw3kPFQo7tFns1VJfBFS17kvCD8fv2R6cyTHx1dr8gjbsHGA5kWy2ctv5kfQl7ffew5Fg1D3EP09TvGOiMpfuNH0/NXJH4FcFrIy4yonCZyuS3Vx5hInU8XXSgdg0SQPEoXzxjs/a4I7Z3qaG/Db9+jf2AIP10pVrxgoli+weUhAbQ6GQcJ33TPVKobI5ZsTqB222Y689TClBM/XsB9M7QaG/ZnYmYAB7hYaBzjpKvPfRLA2+RBRsJzZTwZ+VQkpT0xnXnyIyP3KU78mAX9Gtt2Csz8Zn4wZgeE4mbQQ9TVt076AISxQorf+NHS+gq7ThQKg8zGWBE/zntpI/Ejj9LZM1ZV4mfGRbEUZLTnp9BiucdKqt/pXgnU2TBi8cZkFFK7nYqYcuLXynNa39kxmtE7nMQvCqt2p8EQX4WGxi7TmSc/rtwuxgz9PRGsY6l81vLbBSHQrohCbqFjLa6V4jd+tLx4hb2nCkQOWY232fOzTvx4HakifuQlaY0kfjH0zD9UnfhduvEYbpzoWkzHMLlOSPhsEA3Lx+OI2MANaSgobqc2TI14ikGKnw3prI2G00IDXLRR2H40GxXVHSKbhVrwx63H8NBFkfhZLp+1dPYMhX61EQ8etprO6BiQ4jd+NLf2YefxZLh43aMyslfDyxTMht5ynXyOLH5O+hBF/Ej4nDwN2P1dvurE72ZwJXSrYjE7IBZuPkqCeSXXq5Xix50DEVQUjQASv6y8VjHfP9UEUIqfDcni50wPmqvWgP30sL1oV8cEuxm/36yhhyzeZHwsl9EqeoXBf20s8oqk+I2Vji5+7Z0D+PnPHARuisAMXyWgQxG+8Ysfz7lP81UiJd08Y8X8+9p9mUjLacFz8jTVgrTsZzj+wwP4rUkQ21jx4n1lW7BIq6LSzcPCvLRLuyoB1+8+RkVlh1hgP5Ugxc+GdPUNh8Y/jLynWBw+XYy2DnX1NC//9YSEO5VEypzT07Z09QpHwLo45Bc5VnSZFL/xgz2O6iftuBFcCu0y3tuO1+dZrouxksXvWyF+BhK/eBIKzmgSixWbUxFhrDedefKjr38IJY/bseVgCtULZ44ykvAZ4aTjNIHj7xwwhYjqwqDxC4VuWRQuXCxEd4+67JW1mFLiV17FD1kZlm1NttggrCb1XGcvN2DnsQcIjW7Ayz71DHkyLt+oJoGKp7LYx/PjbWaWbIxDQbEUv7HS0cWPM5oMvBpEQkYjvFZT2+NECFYO64lhT94Pj+tOG0OfDWKN6Qy9AdfuqmfpEaOldQB7T+TQs8PlUjw/67c7UjLgOOt4T80QTJ8fhAPHM1WzFMRWmFLid+V2EXlld6Dk8rTUKKyji94Irw0piEp8ghftfarbM+vyjXJhZK2OJvsIZ/pFYNV2Dq2W4jdWOrr4mZFV+AKe65LEkB4n8bZXG7yisi20nr94jUPfFWGmPoFEL4ZEL5yEMIjqZ/xBabykxE0bK4R0Gh3v23lB2HssQ4qfI+O368VwWnBPZHWx1CispasuDr4bspGW24rXr4dFr1YNGBp+R17qa1y4yuuKuG7sY3iO/VCA9Nwmh3vIpPhZj6zC5/BcHYtp2hA4eQbBxcs+z6jaxO9F+wDOXMiG17JIka2GvTY3L/Pc6PhoblO8awRHprt4RmD/dw/Q0SWHPR0Wv/5Zhm/mhMPZ0z7GXeMdh0Xrc5BfrI7NM83o6BxA4aMmHD6fDRceLrJqSOXjDI6uM53RsSDFz3pkFbTAc1U0vvW8j28XBsFZip8A7z5zO7gAm/fHYEaAQazNY6/Nmq3XWDh5obzYMomHhL0N2H08FzVPOvDqlTryn9oCU0r8Lv1VB5eFyXYL6NBooxG4JgX5RepaNMp76u04FAfv1ZFiEtx2u0j/m1L8vpxTR/ya4bkyEk5ewabk53LYkzE8/A4trb0IMVRT/SiJANw9rdt3VFkrOKJ+fSKwfFssbt/PQkXl1NnpYUqJ3+WbNTYO6DA3IKUxzdQFY9XGKDx8pK5F3PEp9ZjrF0IGNoSEz9oFtKNJx/KKgIs2AkFRU1P8WMCU0H1ud0zl84f1bMp7/p2ZH/4+NcQvp7AZ+jXhcNWFwFVPZbfTWlO1iZ8Z2QUvoFvD26/Fws1Tyc5iqXxjo2Kv/nnO6ZnXLo/CjgOxSEiuMZ3R8TG1xO/WI+pVBtHNtsGQCjcec++JXnm4cGHgX9i+5xZKytTVe4pNboSHjgytJ3mvXmxwR5V1XGTjTa9U1y7aUDgvCEVQpGM+WJ8VP65TNlZenDZOWazs6sW5LPk9ZzOJEUZNQ5+VFF/0N2HclCGpqSB++UVNWLYpDDP8guFM4mftcoePUa3il1PQRp2DNGoLJHwLk2w+eqWhdjjDJxHX7zpmB9USpoT4PWnoxP2wR9h8IJGMMa//Ye/GciMYKzkaTUSk8bi56KFH4cjZNCSnlqGtvdd0ZnUgLrVJySJB5XDzUuYELJX5y2gWvzB6UIPpgb2P4Mgq0xkdC58f9iQPj40Vi58gz9koVMSQhZDf0+9MnSpX6o1zMmMxPzMFxK+ltQ+GhCrsPpmBaTxSYPZKbMzvLxXhWVO3WF6hJuQUPof/+jhqB9QxWEhthnfBsFC+cZPamIs2ljoH1aYzOj6mhPglp9dBt/SOyFtp7V5hZrJR4iEpZbEp9dCpMQZFqSeJ9UjEpzVh7pJ4uJP350aGxzZh5kqngOtb4x2EGdrbCI1SZ6/7c/iU+LlQZ8KFDYvw9Fjw4qit8JwNiZ0QxA9kg+/sE6rkpSTytjwselNB/BicXutmaBW+WRgKZ2qHI+vRVtx7MgsJKTVoef7SdFZ1oLDkOTbsi8XcwHA4L+BpBNt2DsSWbsQ/VLYO0hpMCfFLTGvAwsAwuJFBsVUoPxskHppy1kXBySscTvNCcD9cnb2m2LRGzAgk75Xqxs2bvQ1bdA6UOSyub+50LPT/C1Exj01ndCyMFj/et5DJe0U6LWRjRfVAdF8YCQ/BKHofBTemZ6RCeq/xJLHT3oOHLhweevrsw6I3NYY9zeAdV77lOrOxcTfTZ3kcdu7PQMFDda01be8aQGb+Uxz+PgvT7LAUhOf6p+lD8Pu9MtMZHR9TQvziUp9i9iIeRrJdb5KjrZicJWEaGa1vZt7D3VB19pqMVD+aAK4b6iDYSvy4fshw80Plty4aR0/H4UFBg+mMjgUWv8Ghd6iq68EPv5eIzYA5sfm2I1nYejgL2w/mYufBHOw9nIl9zENZ9D4bewSzTOT3adhzJBn7T2Rj38k87DpegF3H8rHzSC5Wbk3A4TOZaHimriH1L8VtEj8nz3DRebDUrqylhkR1gZ8ByelNpjOqA+/evcfrN0P4834ppnndJy/Ntok6RFYc32BcvlsizjUVklxPCfGLSa2H+6IQcu1JAEUgAQ/JWW4EX0YOdAnFtIVB+D8e93AnRJ1zWsaURrj6RZPBibDdsCfXs1cMeHf8Q+fz8fRZN/oHHHcNEYekcy5Gzh3b9LxfYUs/nhGbWgYEm+n9p9mnkP63+Tn9j4kNjS8RFvkI94Ly0dbeZzqjY+JuOEdk2zri+AM1ZOQXLolGcuYz0xnVAdYiTppxI7wS00RSahsPC/Ncsz4Sv90sFWv93r51/CTXU0L8jKlP4OqvLJzliDollNxCA/hC8no43hpkVkA4dMsjYYhXV6SU8kC9hyH5Kdz8qU6ot22zgBfRyWDxi8bp34qFZ+TI4N4yp7OzR4+Zj11b14qy8mcYcOAOBONuRBXc6JnivTEttisr6aaLgucyI1Ky1OX5mXE7skbkEJ5O5bBUvvGTjukTjm1HUxFmLMPTpm7TGR0XU0P8Up5guh+JnzYMbloOI7de/DgUW2Ek/NbH4Oi5VOQWqqs3yT3JN2+GEZnwBB6BJHpUHjctD+faoHMgxI8T8UbgzKWHDi9+ErbB/chKzPANJg/NPhle3HTR0C6PJ/FrNp1RXbgXVQcP/xhoqByWyjde8qiYs1cI1fttqp/bVD/qDN77Eji0+HEvnHvNhuR6uAcqQym2Mu7/iJ+3AbtO5IosKS/a+01nVgfaO/sRFV+GvaeS4Sq2gImwWeeAvT7egmW6LgxnLxVI8ZMYE7Lzm3D4bCZ81/KaSEvtyjq6+kRj3pJ4JGWqU/x4WJg3m7bNcqSR5HlWTpgdhAWLI5Cc6fiZXhxa/F6/eYuGxl78eb8CMwIN1Gg4lN9Gi7iF+EWTgY/BmYulGBxUn3Gva+jCwTOJWLj8Ppx97pG3xmH1thkW5k6BWAaiCyHxy5fiJzEmNDT2wJhYi4370y22K2vpQm179uI4JGaoU/zCDNXwWhKBmTz0aaF84yd52ix+XmGYtygOySqtny+BQ4vf06Y+nP2tGAEbk6DRKzfZVj0m5TicFd2IU7+VqFL8quq6selAGtx9qdcntkjhhfs2Gk7xCTVl0yHx+61Qip/EmPD6zTCaWvpw+Fy+5XZlJXmaYtaSaCSqLODFjLz8apw+F4GAdfTMiqAXfl65o2lOlWe53J9nJNmAMBK/SCwIiCfxazGd0XHh0OJXWduDtXsyLNxo68nix+R1fqc4oEOF4ldZ2401u+1RPzwhzwmK78HVJxjnpPhJfAFevX6L734ustCurCcLxsylUUhQqfg1PWtFUlI+thzk/f1I/Hh0hUegfCyX90vIHQOe8liwSIqf6mF/8VNyep5m4y7F798kz8+VBFDjHYzvf5NzfhJjh33FLxIzlxhI/NQZ7ckxDD29r3H8p0JTeZQyKZmrrIuQVQQ0GvMD45Cs0jnRL4EUv3HSTWeEmz4aGl0Qzv6WJ8VvNLkXSQ+kh1cwfrhYgCEpfhJjBIvfyQsPLbcrK8mbt85cEouY1EYMv31nl6Up9sbAq7c4/fMjcAYgRfyUPLBixMVCmcdGZfiUE1PMXRyn2oCgL4EUv3HSTR8DDz8DPHzv4vzlbPJs3prOqh7YVfzoIXLzicY8fSh+uVwoxU9izGDxO0HiZ48sL5x0wYOMe7CxFl3d/UIA1QYWv7O/lMDdxwgXHa81joBGzNePv76U3UOUROtzlsQhPr3J4TO9SPEbJzn3oIY8mwVL7+Di9Rwpfv+hEXMXxWHDjkQEhz3G8PB701klJD6NgVfDOPZDPr5dEGpzAWTxc/WPxaGzaYhLLCUBHDCdVT3g+jn1UxFcyQZxekX2/ty8rFuixOkINVply60Zi2NxL6oKbe0vMTSsPrs2VkjxGyc5/+CcRRHYdTwWhsRyVfYg7Sl+vNTBZ3UiLpDX9yBf6UVKSIwF7NkcO19I4kdejZYNupmW29qXkMXPRW/E4o0RuHApDc3P1ZconMXvux8LMJ1sEA/jcqSnWKJEAmapzGMjr3+Op+c2Du4BMfju51ykZ9eh9+Vr01kdD1L8xknOqr50WwJSs5+io3NAlcMD9hQ/Jx+qH/L60nOfUe/6lUMPn0jYFmLO78fHcPFMhLL/Ie95aMOcvCQY8xeF48CJVLGuUG1g8Tv5Ux51DMJIrIxE6+uHj+PsnUivCdD4xMBzaRgOn03G02eOu4uIFL/x0icSa/emo7y6U7VejT3Fz5nEb9XeZJRWdoikzxISY4WI9vypHK4kfi7kjYjNf20mfhwZGQ53rxBspfZZp8ItosSw54U8aLxDRZl44f5/y/llVMQvgeqaxI/qW+MVhE3741Db0GU6q+NBit84qdEbseFgNqrr1bvFjF3n/HQRWHcgDTUOvv+chO3B4nf6x0fQeMbCmTw/F282xkYSQBuIHwmfi08wnOcFYd3WJNTUqVP8zv1SgJk+vOFxmKlMSvpGi2UeEw1Uz+xlx4u5P870snF/ImrrHTfBtcOKH3tj5VWdZNztkyZpus6IdftzUP1Eip9Fkvit3y/FT+LLweJ35seHcPOMIm8kVhE/WyWk14XCWX9PBIts2pVLnp+6dnRncP38drUI3ssi4OEXRGUiMdexANpC/Mjz0/LQZzQ2HUwnz89x9490SPHj+SWeZ+L5puXbUy3caOvpRI1l1Z5sVEnxs0zqia7fJ8VP4svx6jV5Nj/lYwZ5Hy4czu8dY8PdWBTxc6PjbtlXgLoG9e2PODj4FuHRVdh2MAlzlwbDRX/fRuIXq3h+RDddDDYfzqL6UV/nYKxwSPHjfdUy8+rx/W858F7Fa1cs3ezx04X4fxeEY8m2VFTUqte421P8OE/g2r0p5Bk7/r5gErbFaxK/n37NxTwy6q56FsAoMsg22mqLyOvhOEPTxv2ZqvRs3r3/G03NLxGVUAP/LTEkfCFWCh8/r0qeYl7qICJHyfPbeFCd9TNWOKT48YLq2yHFWLk9CrMXWb7Z1pDF7//MD8XirUkkfuo07uwdP65m8bNX9vxQEr8kKX4SX4w35NncuV+E1VuiMDOQxc+024hVofwKxXo2sXNJJDbsV++wHgeRFZW/wLLdCSR+oVQe6+b8WPyceBkIeYA8v6rRGbHpUA7Vj/T8VAV+eM5fzMQM3S1lQtjCzbaW/7MgBEu3JQrvSY3gOdGyyk6s3mUv8QuR4icxLrBhz86tE8+w52pqS+z5iSAM9kwst7exko8hjkXGXs3ixyir7sTyPYlwIc9PwzsyWJHb89/iFwN330RsPfIQdU/VtUfpl8Bhxe/sz5lw096kBmEf8XPyDMGqHYmoqlNfKDB7fd09r5Ce8wzLt6VYLJ+1dNWFYf2BZNQ4cLSYhH3AHbOnzzoRHlMB/80xJs8v1kaeH4kfR5Bqo7FubwZqVRytzcusVuxOAu+ZqaHOptXi580bUPOwJ9WRTxw2HcyjzoH65kTHCgcWvyzq4d2mxs4JXy3fcGvo6hWC1TvikV/cgs7uAXR2MfsnNTvoGpltnX0oefwcd8PKEbAh0WL5rKVGH461+5JRUNJK9fOKzj9x9cMpq/r6B/H+vVxYbw3ev3+PoaG36H35huqV7yHXr/3begexubUXSVkNCNweS+IXRgaZky5bP+fHOSxdybNx9ozCih2p9Py2imfC0nVMZvI1Zxc0Y9n2RLj6sPgFU9nGb+vY43Pypk4B1Q3XtYvWgHX7sqjzKuf8VAUWvzO/5NBNvEs31j7iN0MfBt3KcOw5Hodj5+Nx5JwBR89G49jZyElJvrbDZ2Nw6JxR8MDpZGw6kIq5i60fSrJEjS4cnisisedkMo79kEz1E2u3+jl6NgpHzhqI0Th6Lhrf/RCP0KhHeNn3xtQiJMaDl339qKptxtXbRXT/UojRVMdGHDkTJ+r6yLkIi/fDekbh4NlEbDqchDlLI0XksM02WRbHiRYZmuYsDsemQ7E4cCZGnNPytUxGRuHwmVhsORiHeUvI2/MJpQ5CqKgny2X+PJVhzxhMJ6+PI2unkwCu358t5/zUBkX8cqmHd49urH3Eb6ZvJOb4h2G2/13M8P0Lbt5/EC/D3fvSpKSb9+9kQK5SL/EKXHV/YKb/fcwOiCSRslw+a+nqEwk3EsAZ/kFUP7epZ/qnuAZL12YLct1rfC5hTsAVbN4XhrshhcJjkRg/el/2o7jsKXYeScBM/U24+/yutHMvvpeXib9ZvBfWk54j31tw8+M9Ia0L5PgYnb3C4KQNwjSvmySEVy1cw2TmZbhq/8R0z1v0TCui50y0JuJTET8WPSPcPXlZSQw2HJABL6oDi9+pn7MxXUuen52GPTXUUHgtjIdvjNjXj3uS4oGaxHQW1xhCpIdeG0IPfzhdt+0NiyA/SERXHfW06aHkc1u6JlvQ2SuY7vM9OHsHQ7smBoakWnR09stk2laC66+ppQfHz6ZgfsB9YWhF+/G+T89WCJE/W74n1lKjjyIBNFAniuf5bOX1faCzNkIkp3ehzjHT0jVMai6gup8fRveA64fXQnKwyvjrabT4aXxisengAyl+asNEeH78QPKDqSEBdKVG4+LFAshUxssFR74fTVt89wXHcKZrc/bijBnUS6Q6maYNE7Sf+Cl08eH1QzyZzr1tqp8R1/QPrSzvdDquK53Lw8+IZdvSkf+oTcxXSVgPnjtNSq3FifPZmB/IQ+SRdC8j6V7Qe20s1T+1fb4PX9AW/8VR99eZPxP5meJwe15vprQpWwogXz89B6Lt83H/fQ0W34/meL+zxLEea+R7TyqDJ3nF9ExzmXj51X/LOXb+R/y8Y7DxYK4UP7VBBLxcfECeWRD1Vsc/Dv5J+pCoimUUH8SDJ4p5vJwbD5Pfmz+PfP+p70a+t+V3GhYe8sA4ck6QM0IQ7TGkJMh1o+O5CPL6iE66COqMRH/xdY/lOzdOxKuPh3Z5EnYezkVZheMm4/1ayH/4Ass3JmKG3khGkkTPKxGu2kS4ecZ8+t6MeD/W75hKZCcJEw/lcUeKBMo2AsjH43kyJrd9ZV3bp67nS74b+d7S59F/G/39WL/jRfr/2CAx38e2aPy27r/DnkZslMOe6sOEiJ8QjX8fmyfl2cCPJguPpb8zR3431t+N5pi+E4aDr9lEYVT4/cgy2ZImA0Pn4nVa5vkIa8vLOR7dyONwp+O588PvycYrHDP1d3D2lwd4UPgCXd2DppYgYSu0dbxGWlYzDp3Nx7ecc3NhLKYvjCMBVDKv/HN/PvJ+ND/1HfO/QmcL4TPT9AyI93Q+4livdfTvPvXdSPJ3Zo7828jfjOSnvhP8pxz8jJk5/udZET/yKMnjc6XOJHuV6/emotaB0xNK8ZNUFZUMHSR+Og6oCYMzPaQLF4dj4+4QpGbWmFqAhL1gTHqKxZuSMcc/lgSQBMk07CapbnIH1UmnpDjjHJ+8V+CGvUlyVwe1QYqf49NV9FB57uM+9p1MQenj5yKZuYR9wR5gXlErth1PxzTvYDKU8vlyBPLIjJMuHM4c/U0C6KE3YPuhbDyRw57qghQ/RyYPo0bCXR8Pn5Wp2HMiHYaEaryVkZ0TAs4O1D8whJO/ZNF9uEP3w14BZZITSY4DcNaFwYWXlvhE0/NlxLZDueT5vaR7brr5DgYpfpIqYySm6yIxb3E8dp8oRHlVNwaH5E7xEwmx5dDP6ZjhfZO871DYLWJYcgLJosfBMxxEowjghv3ZqKzrEbtIOCKk+EmqjNGY4RuLUz8/QlpOK3peDpnuusREYfjtO+QVPsOF3/Pgudwg1stZvleSaqKy1ZNC/rx+X6bY+WX4rWOOqkjxk1QVeRNSzyWJSMpoMd1tdYKHD5lqRlVdN7YezsCsAHP0oaRaqUS8GqDhV/E5Cuv2ZoplQ0NDUvxUAyl+jkNlmYSSusnF24iFS+mh3BmNnPxG091WJ4aH35JRGVZ18u2+/iEUlbXjwpUSeOiV5QmcacS2yxIkJ4piqZZ4VT7zrhelFZ0OO60gxU9y0lIskNeR6BE5dyGnY1uzKw5XbmWhuu6F6W5PfrCH19M7iNLHXSgsaUcBMbvwObLyW5BX3CY+i78/aqXfvFBdTtKCR23YfyoPvuuSSPyk8DkKpfipEFL8HIPs8TnpOfzaACevcHwz/y+cv5wD3lJnkO6xWsCp1h4+asfW/TkI3JAK/00p8N2YTEyC/8ZUBGxMISbDf20U/SYGJeWtpv9UB169fovnLwZw9rci09IHGQDjCPww7CnFTzWQ4ucYdOZ1RyR+rr5xQiRO/5KNbJUNdw68GkYmeXjfX3qE+YsTqFzmNHMs7uwlcYYUJUvKdM9QLFgchp+vPER+8XO8fqMegWdculEMjQ8/czIAxhHIAS/lVV0YHpZzfqqBFD/HIIufi28EZi1KwvEfH6O9U11py3g+71lLP/aezoWbbzSVJwbOnKeSczEK74iz1SjknI2cT9GVvNw5iyJx4sccvGgfUNWc4NXbhZjjd5ueO84z+d/7KakuimjP2m6HXUMrxU9y0pJ3oZi3NB4/X6tAQUkneULqGn7JeNCGExdKxVwYb+3kInInctnMbZIDDEy5Gtnz4/ky8gZZKBdtjMW5X9KQk99gOtrkR1VtB+5FlGP59jgqZyimLYyEszYSrrx2TA6FTmpy++O8uRp65sw2c/2+LFTV9ag6KOtTkOInOXmpjYLfmkRkFzwXvU+1PIJ9/cOof9qPM7+Vw80/XnhzFstnkZxfkX5P3tNM3V+4dqdAVUsi2rte4cLVQvitj4ETCZ+TZwQ0JH7mtWOSk5M89M47dLixCHqHifu1cX8Waup7TXfW8SDFT3LScoYuGCs2RaKguEVVApD3sBN7jhZBvz4F0wOoLGPeLV9ZKuBEv//WOxzfLAzGr9cfYXj4nWp630N0rY3NL3EnogpzlkZjmpaePy/eB1BGgU5mCvHTxpDnF02eehjZzghsPpiJugYpfqqCFD/H4Ma9ibh2qwANjerILP+ybxCFxc/x0++PMMsvHhpf8uB8yePheT4L5fsveWiUPb8oTKOe9/8sjMC2YzmITXmK5uf9prOoA9X13fjxz2Is354MF/IA5e4Pk5vKIvcP+wSy+G05lCHFT22Q4ucYvB1WjddvhvFOJRPuNU+6sOdIMuYtChPBOix6nDFjrNlPlChQHh5UPECxYJyOMXexEYkZTaazqAN8z3gJxLV7ZXBaeA8uXjIIRi3kSGQNtcPNB6Tnpzq8GXyHs78+hJtPBBke+8w1uHqHkWELFcdn46YhkRXZEUTY+iSkuEYey+f5F75Oc5CF5fJZS3E+6u0rjCRSfdHrf6+LPaMweuDCiUodrt2dgZsh1aisVcdGmpz4t77xJcJi6rB0E3l8ojxKp4t71KPr5uPktmpur0oAjDOLhi4Ye0/lIiq+EZ1d6op4zcprxKEzKdCviSEP0NTuTB0CJdhnVHsQbYLFX+kMfNhw2VZtValXPq5IoiCCkPico65hMlPUD18/tTHRzriOTOWyWOaxkOuankHucHnF07GN2HAwE7VS/NQFRfwekbHnhmLpRltLMuY+wSSuQUL0mG4khBr+OzXOSUm6Nje+5n+uk0XJVgblv+T8gG50DjcSPDevcGIIkepq1HUJz1wXQp5SKNz8I+C1Ig6XbzzGkIrWFvG1JqQ/w5HzBfBcHmexPsZNXhahu0fvI7F6Zxbyi9vQNzAEtUyBNj/vQkpmJbYeTBMBTK5E0faobCKP5Kj2YKYQJh2ntWMDz3VhrXE3k4/Bx6djk3eu7F7OUY6Wr2OyUhFuHl1gsvhxUJUV9SPqI0TUxXRtKh07DusOZaFGip+68MHzU7wyizfbSvLcDA8PsHH6IIQsLIoYTka6kdfnxh6rTwhd9wfvxG7k+qfzCNL5mf+5LiGObAhDsXhzHEKia8VQi5rCq7m9Xb75GLo1ifDwYyNkoS7GScVLUoY/5y01YuuhNETE1OKtSjLtv349hGctPfjuQgFm+bOnR56slkdN+J5TJ8xSmyCKEQo27KIeyKgLA//f+hkPRXIBQW6fIXS+yf3cWqIy4jSiTv7xAP9d1rFS6Wyw52ekDkoSiV8siV82iZ/czFZVEHN+v+ZTIwmhBmIfA8+NZM7ieKw/kILdJ9Ow52Q69pzIJGZNUmZjz/Fc8X73iXRsOpSKpdsTMWuRbY21mbzH25xAAzbsT8Wuk1nYeTKXzpsz6pqIdE17j+Vh7/Es/HatCC2t6grsaG17g+y8duw4mmuxHqylq1cMGaN4es+dLRIO8qB3Hc9EdkELWtsHTFcxucG5ISPi6nH4+zxqAxnYeSyTXrktWmgPJu6m36zbk4rZgbEmsbLOuP9DMvJKpy8a8xfHYvP+JDofPb8WrmHykp/lHGzYm0nPmGmkQXQUrBG/KBFlrHjBvE6TxO9AjhQ/tYHF78wv2WQ47LfTNA/hrdmWjOz8FmGwP3Bg0rPpeR+Ky57jbvhjBGxItFg+a+myMAzLNyciK4/rZwDNo67h33wlXjs6X6sulZIhvgWBa3IwN4BTl1muC6vIywS8SAB4qI6MGy/8nxkQDd1aA4zJ9aarmNzgZSq9L4fwvI3vdT+1hU8/J/x9Y9NLJGY8w+KtKcIrsZ34kXejY28vCmt3ZiK3oJXOqY7ndjTTclqwdGsqlYuHO5kWyjtGckJyJ58YRfy4o0Xtbv0+ZSd3R4Xjen6/5JBA3RXDJ5ZuttX0DMe6HSmorlNHGP5IKLsMvEZmXhOWb+eHx0L5rKSLZyjW7UxWZf2MBc9fvEJM0jPs/66AesocIm6d8fk4+bjKOjkRBELi50wdLydtKG6EVKB/YNDh0k/xkHc7ebWJaU+xdAu1TzG9YJ7bGl0/X0oeLowQ82abVG7cH1d3YfXONFEma+uGxU8Eu9ArTxU5eRqxdk8uaqT4qQssfucv5mGmT7AYH7d0s63ltPlhWLE1GZW16jTu796/R1lVJ1bvTrdYPqvpFYZ1e1JQ88SxxI8DTVhsMh+0Qr8yBa4kRNN1QYpxtlQPduSlG6VobO7Gq9fDpqtzDPB8ZtnjF/jrThn81yQJY+yiC6U6tv5Z5mhTJY9qHDbsyyPx6zOdVX1g8VuzM1XMjbpwPlUb1I+Z35L4rZbipz7wHMOVvx7Cb2UEZvhavrlWkXrf38wLwbItiais6TKdVV1g7+9xdTfW2En8XLzCqeeYiuon6liuMFb0vHyNMGMxdh1LxCz/WCori1/wVxG/1TuzcfHPGjxpUNc86efA21UFhZZi4844zF1EXi/P09lc/GJJ/B6o2vMr587rLuqAsfhx3Vjr/Yn/V47h7GXEOvKMpfipDJwOyhBbJRYcL1jCQ0aWb7Y1/GY+id/WBPL81Cl+DPZa1+zOsFg+a+lCHtHavWkOJ34trS+x50QMdYBuiCFInoebbiPD/KV008UjYF0OImOfiTkgtUSAfg7syX5/IQuzvO4qIzc2FT9lB43pxPV7c1Qpftxx7esfRHZ+E1ZsTxDR1CLy3EJ5x07zukEWPx5q52A1qh8Z8KIu8JzBs6YeRMXVYvHm5BE32HZ0Js9m9e5UkfVcrbCr+NHDtHZvukOJHw95Nj8fwK7juSbhMy13Eb1lpcc8odRFwiMgGovWJ5MH+BjdPepaAP8xsPidvZALDy8lQ5MS8GKbYT1F/GLg4hktkimoMXHzMHVyikqacflGAXzX8nIN6hhYvc6POxjKvCp7x84LI7BudxrVj2N1XkfCIcWPjdSbN29RVNqGVWJC2MLNtpLO9FCu3kPip2Ljbk/xcyYxWONg4sdlCYqqw4ptmWQgOMiFgyfIoFpjdKwg99SdWRS0kVi1PR2hhlqHMFYsfqd/yoObV6gQPsUjoXLaYP5eEb9Ycf827MtSpWfDMQ0hUeXYvD8W85dQB4HX7YqgqPEvW1LW+XEHw5yoIwqb9meQZywXuasOLIBs3NfusY9x/1YbhhW7klGp4mhGu4qfF3cOHGvY8+qdCswKMMKDvD13bQTcvcLIQLOxsGe056fpStcy08+I2f4GzPQNx7W75aarVS84J+jpn/KpXsNI3JVMLzYVP69YzPBNwLYj+ah7qr6Al4FX5Bn/kosZurtw091WxM8rhspnnfg5kfjxqxsdZ7ZfHHYfy8cTFdbPWOGw4sfg3JD2Ej8nr3Cs3J2CitouMQavRth72HPN3gxxDrVvhlld14k/7xRj7e5UKhcbUBY8pjnTBgvf1xM/d300GUGqc204Dp/NRkFRIzo61bEA3hJY/L7/tQAz9ZxySzHMypIlWwwt8xBqJDz0kdh2KBNPVJi+i8Xv1E+51A7vU70o2ZMsl3U8pDbtEwoPXQi2H0yl+pHDnqqEPcWPjfvyHSnILWzGy77XqhRAe4ofp4/iZRSFJS/w6pV6clGOBAeQ8HrIoMjH5OXdJXHhYbivI3Jj5crtCfjlj2xUVLeZSqE+sPj98FsheR9k1MUO+LzBqtLRsFTmLyEnUHfWB5PXdB87DiSScVffyA2L33c/5WE6tcd/PD4rPWMlCpZz7dJx9Pcwb9Fd7D+RoJrtxMYDKX7jpCs9lJ7LY7CHGogh4TGG374znVU9sK/4RUG/Lh6Xrz/Ew0fNqtmWaCSaWnpw+a8crN4RB1dtHJw5EMCHvBGbeCD24bzFsVixPQ1Z+a2mUqgPPOd36sIDMsghJFYsWLzw2jZ1LuYPdWGYH3gXB0/EkXFXX7Q2i9+JnwrFPoki/R2JH4u6NZ4xz11zjl0WP4+AUJz8KRMpGbWi8+eokOI3TrrSA8lDJ3MD7uPnPx6ItYVqg12HPclozV1swKa98QiN4s6BesSPndShobcoLmvB2l1kFLyDSfwSSfRiqFyTV/iYrj5GzF6ciD/uVKOqtld4UWoDi98J8mw4iw0PMytDyrbzuN18I7F+twHXbuegtU19AS8Dr97i5IVHcCHh0/wjfpGmuhofuXOhMSUTn7U4CkFRlWhrfymWjTkqpPiNk5y4eTrRw8eA87+VYHBQit9IsvhpROcgDD9fKSQxUU/9vP/7b3R09SE5qx7LtiVDQ96C2AuRPD9eHG1NYIG9qdFHY8YiI/RrUnDix0d42qS+BfAs2Cd/LRLzfR+2M7IylP8fRmNWQAz+vFuKuvo2sVmy2sDid+qXCmqXySJ4hyNXnagzzktvLJf58xTi56PswDJniQFxaY14+/adauMZxoIpIH6Zphts7rHbpgfJCYZ5rZcb9by+/7XUAcTPFh7Nh2O4+8XCb30KTv9SgLTsZ6rKP8m93aTMBhz7MRfaFfFkENij4sACeiVDY0svxNbk4Xg3XwPc9bEIpPq//FcxHj5qERvuqgU8ihIWW4etRzMxbwnPaXHZbFPnvFvBzEWpiIx/iv6BN6ocjlfEr4zEKl5EGnPdOAvxs1zmsVDx/JSlDrOWJCAxs8V0NseFY4tfXQ/W7M0UXsiHBbK26UEqjY3Dpg0kfo9ULn4kWqJ+rBFA0zE4Mo/qZs7iJOz+rghPnqrL8+DI1N6+IRK+PEzzDFU8fIvlnazkdsnb0hjhTtfurr2N8xezSVDUM/zJgvS0sRPhxkos2pSoPL8Wy/rldPZOJM/4ARIy2k1nUx/6B4Zx8sJDi+UbL1n8eK9PbjszlqQjIVO9c8ZjhUOLX1VdN9btNeW+Y6PA4+JWG3mFPAnP4sdG5pxqPT/qHOxmz5g7BGaOt2PA//fhGB5+kdh6JB21KguVzn/UhjOXihC4OVl4fJbLOpmptEtXDl7QhsN1YTCOncvGs+Zu8hjUkQGGh9r6+weRW9CEVdvIu/EOp84mb+lkg06rdzxmBGaR+L0wnU1dGHj1Bg2NHTh49oHF8o2XiufH2XSiMXNJovT81I76xl4c/yEbPqtiyCNRghVslSPQbOx5DujsxTLVen5r96QJT00JmTZniRiPkTEfgzoE+ij4bzDizMUcNDarI6Bg4NWQiPz79fojaEi43X2j4a6n+8t1Y7G8k5XcyeN7QW1cSz35hRHYtC8N0fFVqgtbb2jswZmfcuC/lp5dHQd1WH8vnL1jMDMwhcTvueks6sJTaqMxCZXYtN/Wmat4LSWLXwRmLTGQ+DWZzui4cGjxe9k3iIKiJpy/VAyNLlGk3HIRGfitFz+e/9EIoYglI69S8avrxPoDcXDzDTYZ+Q+em6Uyf5pkdL3of8nLnr04FNeDy9DwrEekYlIDyitbceRUPPzWRGK6ju6vjodv1Tbk+YG8HENhFGb4RUC7LAzRCbWm0qoDr9+8FQL4591yKoNt7gfXx+zFsWTcm01nURdiE+qwYqMR8wPt0CnziiQbGYxZi4OpfhpMZ3RcOLT4cbRST88AgqNr4BEQK+ajlK1nrH+IRFYFMYxqwIFzBah50inEVk1oefESf95/SAKYSN4OPUwc2GGhrJ8n/S8HAGkjsWxbIn64ko/yavXMqfAwW05+E/xXhZInH0T3lMokDK16xY/J5WB+uyAU/2vGHRw5l4vs/Ofo7H5jKrk6UPK4A+cuPcSSLclwFgY6QtBSmT9HXgoyb0kSklQ6rHc3pBpuCyLgSs+apfKNl9wp4FRyLt5BmBt4j+qn3nRGx4VDix+DDVtsej1mLQ8l74+8NZHUlr0by41grOQksE76EDjpwrF2XwqCIstQSwKoJnBUY2d3P+5FV8N9MdWJjkP6w8X4v6Uyf5zs9VGdeIbj1z9LxTottUR3ciT3u3d/IyvvOfRrEqgs6hY8ixTzf9GY5RuN1TuSRcJ3NYEz7fDyhx//KMW3nhH4xisU33rzGsAvv1duPonwXPoAyZnqDHi5G/oUbgt5E2VecmO5jOMhd5Kc9OxdB8Nz0X2kZEjPzyEQm1YPj0DOfB5h2sjS+iEDZxI9J12oEEHtymhs2R+P1KynpjOqA9wxGB5+i8jEJ9AEsBcbPk7xi0LgpmRcvFaKwhJ1Gda+/iHEpTbg6Pk8zAk0h9U7FpUheuV1/hIjlTUD8anVYp5TTTAm1mLLwSTMX2oUHqCSzuvL2qrGOxbzF6chOUOd0Yx3wp5SRyaZbJht2yqLnzN3jnYn4fK1fFTXdpjO6LiYEuIXk9IAjT4MLlolC//4hvb+TU5zxcLnwvQKhvOC27gfUWE6o7pgpPpx9aNyeIeRcfjSHIr823DsPpmNxiZ1ZYToHxhCeVUHdhxLh5t+fKKvBpoj+YSHTu9dtDex+3gc6hu7VLUEorK6GXdCCrBicxI0ogPL+Sy/bAd9joKdtygWSRnqnPO7HdZA95BHKDg4zXIZx0Ufaht6A8789hC1dW142aeuofHxYGqIX3IjNBwtxuLnHUrGwPqAF46KYk+JFz87a0Pwzdxg3A2vNp1RXeDOgbs/b4jJ4velnQOef7iPfSdS0fqiX1U7OBgT67DlQDIWLOM5D1vtGjD5aBa/f+6rVxiWb43FzfuFeFypnqhHTiBfUtaM3UcTMVN3H86e/Ox92bPspouAJ93vlKxnpqOqCzfD6jDNOwbO4wpK+wSF+Blx8cZjsczEkdOamTE1hj2TGuHBARmeJHw+wXSzrRc/YShJAHkNobM2HN/MCyfxU1c0nRmxqQ2YGaBsjcJ5Aj8d7al850K/ZXr4RWHtjjjcuFuMnl519BY7u1/jUdkLHDqTg2/nB2MadV6chBfhuOJnpvI3AzyXG0j4jYhNrjLVijrQ3fMKd4KLsGlvDNx5NIeEXGm3XDYmt8+Pt9+5i8KxfHMEsvIaTUdUB3peDqHkcSdOX3wIJx+e77SFDRtBHyNcdIm4cq/OdEbHx5QQv7jEJ5i98D5cFgb9s2GjxQYwLioPHWcCuR+lzoYTl/oUswPYONID4BVP5flYQBDntqTvOOLOKwTfeoXCc3UcjMkN6CJBUUuqqOy8JmzYHYuFS2Pg5EXkDgyv//xHHByfGn04PALv41pwialW1AFuY909rxGTXAvdmgjy5IKg8Qkhz1YRwemc7kuk/LJc7oC1EThyMhrFJery/IrLOrDtUA60yyOg0f1FnW6OYbBcxvGRn/tcXL3r+Ov7zJgS4ldZ1YHLVwqxakcSiR8Hdli6+dbz56sFqK1vRv+AurYBiSXxmiF60TwnFEdl+Zj4kUCKNZIRIrfphoOZ+Cu0Ck+b1bHbMwf3dHX1ISSqHPMXhZDh5LB5Tn6gDGNbLrNjkuf+nL3Dse1oFiLiGtDYrK40dE+benE7rBxbDnGSBvb8+P593vPbdzIdyamP8bxVXZmHcgpewG91EtxI9Nx0t6jM3FmzXMZxkToMLtokXLn9xHRGx8eUED/uLQ4ODuOXv8qpl2+bNEmWuPNoDBnWDDQ/V1ekVEzSE7h58RwKp4HjKLKP1A/Pc+qC4aqPhLs+ESEGdQ0d9fe/QXl5Iy5efQAP3w/BEuzN2mL5i5rICbo12gR6jRVRrrEpz8SSAl76oSbci6qHh188XEUGGO7Y8lz8xz34K3fUGZSWnd8Kn5UJ0HiFwZ2fQbFe2XIZx0UtPfsLgnHlVqnpjI6PKSF+HNLPAnjxRhV5LPFk4O1j6PRrInHwdCIeV6kr3D8upR5zfHkY5fM5FJ21BmzYn4vI+CbUN6rLW2hq6celP0uxanuKWPP5YS6Md7CeYuJH91jDok+vbn4G7D5WgLCoRnR0qitRQ93TPoTHNmDlzlT8z/xgOPH6v0948WoVvyzy/LzWJIkyuP0zx2m5jOOhxvseZnj9iut3ckxndHxMCfEz47e/auHkmQSXT8wJWEONLhKBmxJR8Ehd4ped14z1OxOwcJnhk8PCGp9ozPCNxY+/l2FoSD1bwXAEalv7GySlt2DVjiyx3Y8ieCQAXDaOdBPp3f5bZkelWPsn1srR/dZFY25AArZTpybnQQO6unpFh1Et4J3Nj53Pw7QFIXAW4vdxr0ht4sd7S755M4SkrGdYuIY3VDbAjTqgtlirPJILlwRjw86rMMbnm87s+JhS4nfxWi2+nZdE3ot9xM9Vl4iATfnIf6SuBMLNLX1IIO9v54kskbHmY8NGswKisHRLBG4GF6kqFJrzrt4NqcfaHTmYuywOrr6K6PGOHLxYmAV/mp6jV/9bZken8PzIoM4JNGLRhggcPXYLCXHZePdOPff39eu3+PVKObRL48mL5c6b44jf0NBbPG1sw+3wUsxZFQNn6pjaQ/y2HEpHXmE9ef7q29l+vJhS4nf5eiWmLyDh09qnl+/qk4CADXl4UNSpqvVur6jn/Ly1H2cvFZEQsAhw/TDJkFC5OGE1Z9TwWW3EhavZyCtqUE1k55OGDkTGlGHL/ky468jjI+Gbrlc8H2WuzyjETym35fvqqGQPX4gfGdIZ/lGYvzQEASv+wNW/UoTRVYv3Nzz8HqmZz3HqpyJol3O0J8/nmss58lmPVJ348WJzY2IFDpxNw4wlPEJharf/Ktd4yZ3cCHIGorDvVD46uhx/YftITCnx+/N2CWbrguFmp8g+nkNZtCYFOfmtwjNSi/Hgy2SxvniznESAIwHZMzaAk4CzIDhpY/CtNgwrdiWitLJdJAxXC+4EF8B5zs/0gN+BM5WNk3dbuneS1H6pUzAzMBI/XHmIV6+HqE2oZ2ibBbC4tA2rt8TD1dMcCckCwXO5SkeOA7au3Hls+g914HlbPw6eTcesgBCyWyxWHJHNz6d14idE1IeXh4Ti2wVR2H2iAO2dUvwcFqWP20gAS7Fkc7LFBmEteRht/qIEHDqTBWNSNfr61RU88NvNChHwwqmTRAAIPWxu+mjMCYzFsR/zEZfWgK4edTwgLzoGkJRVj/2n0vDtnJsk4MH/DOfaptfsgGSD6GegTk46frtejtIKdSVq7+x6jfjkBhw5+4DarSIUH8SPyxeuOvFreTGA3SezoNGFQSPEijunn4jIHhOVjgDXh6s35/ONwsEzBdLzc3S0tr3Cnu9suwuymTx/5KqNhYvnfew5mYIX7QOms6oDl25WUjl4HkwRP+4dLlwei/V705BTqK5EwGVVbThwLhX6tbEQm+yy8PHD7mVaqG/h/k11Ci9fx0NrPBxswF/3q9HVPYgh8qrUhJTsJizalGBKVM732oAZ/kZ4rYrBnQj1pCB89/5vsf5yxwmyV7pIsZif9zR08eYdHaxpwyx8PDQcITq32uUx+P63InSrpGNrK0jxsyl5mQAJIHH/6ULyPtS12P33m1Vw84mj61ceLvaUjv5QgIelbarbA67gUStW7kzAbH/yyLUG6t0qO1ZouIPCYmjx/k11klEUmz1zknPyALem4+fLpairV1cQRBs9dw+KXuDA2Vxqw8r83+rdGQiPe4K6p72mX01+9Lx8I3ZJ2Xg4H9P1RhK/ILo3vJdhnLg//71/YyWLn5LRaN6SOBz5PhdxKU9E1OxUwhQXP2UY7MP7kZ+/nBwo4kyek8YnEftPPULz8wHVBIYwrtyqxEx9DDS6WMxfmoA1e9IQGa+uTS0Hh96h+kkXbgRXQLuC7gXdU94BQOMlxe/z5Fy1bGBDxfC3hgys78pE3A6tpjrtwRDVrZoQFltDopcoDPye7wrR2NIv5gbVgpKKDvx5rwKBWzOpU0LPpUhpxuIXa7X48Vwfj4R4r47H3fBK1DV0qSqC2xaYsuJnzgahNIZo0aPixmCNADpTg3Qir0/jFYs9R/PE7u6v36hnz7Rrd0ox1y8M7n5GrDuQjfjUejxrVk9PmdHe+QpnL+bBe2U03PSW7hPPlVgzX+LoHNEJ9OKhtigsXBZDdVqkOu+/sakbMUl1WLU7F/vOlJBH+EYEd6kFfwVVUQcuHh70PCpt1mybrGu/PM/n5sUefjB8N8Ugq6BZdGzUtLbTFphy4tfdO4i/gquwdm8GZgZQoxJzQSyC1s8FsaA6EzVaI5ZuSMWlv4pRVKqeubKc/Cac++UBFq0zYvexdLGh5SsVbXhaXPYcv98qEokGLN0fyS8jJ2tn8rZB245koryqXVVBXK9eDdI1t2HroUzsP/WAOkbqmoa4+Fe5xftiNXkbqIU8fxiMxdtiUVj6wnTGqYUpJ35vBt+irLJTrPfRrkiCK2c00VFD8CKPTUtG0woB5ONM190nz88Ady8jPPRh+PNumenMkx+vXg+jqqYdBw/H4eR3SejoUEfADi/TGBp+h5/+yMX/zLuOaVoefuYs9dLDsxXX7UlDbHKN8KbUhOetfdh/PBFHTqWgo/OV6a+TG9yeeQjylz/LLN4La+nsGYFv5oaSVx+KFTviUVQmxW9K4N27v0VUU0zSM3ivSFZ6trpQEj9O9MvBHuM3mGJynQSQ00a5eRvhpo8nka0xnXnygxMb9/a+QeHDJhQ/asabN+rY5bussgM//vEQy7clQewzKIa0Ld8jyfGRh9+2H81FfJq6trzhDl1BUTMePmoRHV81oLKyHb9fKcDq7fZZkjWd9zalDuJM3xCs2WlAcZm6IrlthSknfmbkFr6AfjXn+WRDyRFhPOxp5fqZf9bOREDDSwZ0ybjwJ4eLvxGBGBK2Bc9RcA85OvEJZvqHQ6M3wM2XOjA6vg98T8c/fyv5b/KuCe5+sTh/uQwNT/vR3z+1IgMnEokp9fAOCMVMEYNg+X5YRbFruwGBG404/VMaquvUtQuNrTBlxe9BcSv8NseSwQwjoeINbqPhzLsZWz1UpgQMCA+SjrfrRB5iUxrR9FxdOyCoATzU2d7Zh7sRlWJHeVe6h668SF94fVL4bEqeG9eHI2B9Mg5/9whFJV2muyBhaxiSnoq2zB1zi/fCSnIqv//rG4afbz5CQ2O3qub1bYkpK36Fpc+xeq8RcwLD4OZFjYIMJieNtXV+x0Ubk3Hsh0IUl0/N3pU90dH1GjEpDTh0Lk8s1rVU/5I2ok+EmNN200VhYWASfv2zBEWlLegfUFcWIzUgOqmR6toAJ7ZLlu6FlZxGHuX/1gXjnlE9UzL2wJQVv9LHLdh7PBo+KyJMc33Uy7LDUJlGF435S2ORmKGuuRI1oLK2BxsPZMPdl0PBLde/pI0oxC8Uzl7hcNZGYsGSEBw6k4SGZ+oKgFEDYlIa4eFvHsGwPZ3oHv5fz/u4F62ebDf2wJQVv/bOfmTk1OHo+Qfk7XFWFh6qtM880exFMYhPe2Y6s4S14IXKaTnNOPVzIbQreXNiy/UuaVuKpTz0fPAOH276cGw5lIqqui5VJXKYzGjrGEBEXDX2ncqBu45TDNpnNMPFO4Tu4U0EG9S5sa+tMGXFz4y7UU/EXJ+GerZu5PnZeodk5qwAI4Kja9Hd81pEVEqMH5yC6WlTL458/4DuVbjikfB8lIV6l7QllZyfPDfOkbS8s8DKnVnIfPBcBHRNsfXRdsHjmk6s25tIwseL0DnHru3FjzuKsxeFwW/tfcSmSM9vSuN+VANcfeLg4RuOGb5BQgQtNRpryPMkK7fF4LdruWh+PnU2i7QHUnOeYvuxJHivMqcoYwMh5/smhiPrORrzliRg4/58hBif4e07qX7W4nF1L9bufgCNjto2T8HYxBaZnw/qtBB5Dez2Y9nIyn+K5219pjNPTUx58UvJeo4tBx9Av9pAAnifhND24sdDqS6edxG4IQJhMTXIL25DATG/uH0C2Ya8Ry8EC0vb0KGyVFW8XutZSy9+/rMA33rehrPYsJQTEjCl+H0dciL3eOw6UYAHD1tUt4uJGe0dr5FfRM9H0QvxnOQXdxA7Tc/NxLCguBWhhidkI3LJBsXCRc85VrmNW6r3LyE/G8pzouQejsK5y4/kCBRhyosfj7PnFbVg97E0TNcGUyOxh/hx3s9wuPlFQrcmnhp4IhavT8SiDSkI2JA2MdyYDP9NcYLLdyYhM7/FVAPqQGNzD+6FP8LWQ0kkfKH0IPNQpxS+r00eBp272IAlmwyIT31iulvqQkpmMwLWJcJvXTw9J4kIXJ9JzLL8HNmFqViyMRb+a6IxyzdWzPW5iN01bLHOTxE/sU2VLhoefuH46UqRFD/ClBe/waG3aGvvx7EfCkTmA8sNyBZkYx0BNxJBd+8wYgi95yz61CgngBqdETP84rBubwZ+/asEFbXqWqdVUtGOPd+lw3sVr8W0VL+SE09q0z4RYqrAQxeJg2cyYEyqQGu7uobTKqq7cemvcqzemSGSU/B8mxsJBu9paelZsgd5l3Z3kRwjms5LdSu8PlsOexpEcNjhc9lITK8XewVOdUx58WO8fvMOp397jOm6BGp07E1YakTWkVOeuWsj4O4VRg9WMDX2O9TQQ4icZV2h+T3/3vw38/uxfjf6d+bPM3zj4bU0B3/erkfvyzdigbgawIEUw9RLTc1pwfzlMfjWkzsRnJCcymiXIWrJsZPFj4PEokkwEjFdexe+a28hr6hRlTsEXLpeQ89nouigKtsHcQT455+vke9Hfjf6d2Za+r3YcNkr1vQ3buOmv9uMBqzamY7MB43o6u6XAUoEKX4EFr9TF8vhouNkyPYRPx5v5z24eFmFeGXDLcgG5N8U0Ysf4cjvxvo75pItKbhyuxpFpZ1C+Dh5rhrQ83IIwdH12H4kFzN9qR61VB6+R0L8+D2v8ZPr/L4eyVvRRcNdHwNnbTgWLo9AmLEcLa1dePtWXSn97kWVI3BLNGYFmiJaRz1DIzne7yyRf+8somjJCyThEwLI0Z7CY7NU52OnsoSLzkPPzNq92WKPwMFBmZqOIcWPwHk3rwXXiU0jZwXYZ6NTbtxOPjFw8o4XdKb3SoPnUH17MJxElje+pIfLOxRbj6ShtOIFXvapJ9Cls+s1cgufY8O+bJGIV0Nen6sYmiaj8M8CYL5fUvy+JjW6KLj7Ufv2isaMgFh8dyELadk1ePVaXWmzMgpq8N1vifBeZ6RnVBE/y8+W7clboXGGKUX8ePNlXntsfUdc8TCVdIsb92ejtkFGm5shxY/AXlDLi9eIS23Csq3J0IhGb7kxjZc8T/XB+1Miryz9zhYUD5QuDM4kFE6enNHhFnadjBfRkm9VtCDZEF+LTXuTMH+pMs/HO7L/d+0Tf7ZfXUqOja7sKYn3kZjpH4rjP2aL9HNqQs/LVygoeYb1+wz03Nyi8ihemYtOWU9qqdy2omIfRv7NVm2a5xAN8OA9Gfemoa6+x1RaCSl+I1Bd14Ut+xPgoQ+lRq80vn/G5FVE0ZMk8ePEuLP9jdh2JBFB0SWq8fpaWjqRnPIIB06mYIZvJKbruXes9F5tMRQkaT9y6rP/PScIizbFIdhYiZoGdQVWcSKKu+HF2Ho4AXMWG+GqpzLplPanBK1ZLvdkprtvNLYdSMfd4Aq0tatjT8OJgBS/Eait78CeI1GYG3AXziLwJfrfk9IqIYufE4mfxicci9fHIzuvBUND71QThJCYVAytz0m4a6/TfYilsnAPnLeKUmdnZKrRhbxzDXVYZi6+j+shJaa7qg7wM8IR4Bl5zQjcmgi3gGhM0/GOL4oXaKm8k5k89TF7cZRIAM82QC1z/RMBKX4j0NP7CulZtfjuQg40fjyPxOJnCj1WFenaveKx77sCxCQ2oLVNHYuPWZvfv3+P2KQ6zPULoroPpbKwp6d0RP4JELJYZsnJQnMnhblhXwr+ul9MHUt1eYAtLwZgTHmK/eeK4OafQh4gB6nxujt1tT8XLxK/wGgkZsrcwqMhxc8C4lIbMXORMtlsj/x69uZs/yT4rsyHMUFdOzSL/fk6XuF+VBPmLS+Au2+C8F41Is+hUTE+dp57kbSeImjDywA3z0RotBFiJCUiplIMu6tpzplhSGrFok0FmLM4XpXiN3uREYs3JyMz77mpRBJmSPGzgPi0BsxZxFlEwjDNi4cOLDesr0sehjF7QibPSPzdgJ3H8pH5oAPPX6grhdmz5n78cqUcK7ZlwM03BmJzWiqnMs/H5LJKz08NFPOzotMSCQ99GHYeTkRQ+CPq3KhrU+fG5gHqDDdj4/4sOPMaU7smwrCWynPCHXbzM3P0fCE4ZVtHl7pswURAip8FPCxtxZFzGfDfmABnHQ93mIVlkpGFj6NS6fo0+hjylGLg4WfA+d8fifF9tYCzTdQ/fYkwwxMsWpeM6byWz4s9PCl0jkCOBF2wOAwHT6WgvlFd0YbDYjRiAMe+z8d0XmpjKhMHk9lrp3VrqHQ6FHK8wtW7U3vbok9Bip8FvH7zViTp/eX6Y8xZkkheyGRcR2agBh4rXqfrIjAzMBHzl6Vg4fJo/HqtSDUZXBhv3rzDH1TXviviMcOPA1siodHGU/nk+j1HoQu10XWH0lHToC7x4wCY/v4hnP05HzN8wsQOLSx60xaGwVk7uYbgleFm7jiySEfAwycU1+6Wm0oiMRpS/D6BK3cfY6Y/NShq8JYa29ck9/DEXBh/1oVhln8MlmxKF0lrcwqaVbPBaGVNF26GVGDtrjSxGFfZyoUfYk7wq8y7SqqfzmSMdesS8Ov1KhQUd6kq6pA7kmlZz3Dm50LoVieK4fhvF4ROOvH7MC0Qg8CNabhAtoB3i5CwDCl+n8CV20WY4XsXGptsLWJbsuiJZRg870fiN5dEes/hLNTV95qufnJDiez8G7dDK+G0MIh60+FUDupVi6FcEj9TGS2VXVJ91HAaNHp11Sbi9C8V6B8Ypg6ausLuq+p6sfXIA8ygjuZk9PxElhh6hlx1STh4thwdXYOmK5ewBCl+n0BVXSfuRVZi2Y406rlGw0kbDmcxzj8ywOTrUAxxkPDxMMzsgBj8eLkE+Q85fZk6Ukpx6qtnzV24eK0YLlSvoscqsupw/UrhczRqvJQMPbwDfMD6RHx3Ppvaq7q21ep9OYQHD9tx7lIJPHzJBnBWG9FmJwddqJPuogslu2DEobNF6JTi90lI8fsMWttfYe/pfPJKOHdhhEgZNhnETxGJcPisiseOI3nIK2o3XbE60NrWj/jkOhw4nTOqXJKOSF764Epk78RJGwLnOXdx6VoRmlpe4vVrdSVazil8ga2HcuC9KonEfDLYAoW8FMMjIBxLNifh9xuPhVhLfBxS/D4DDnw5+n02Zvuzl8XzUJxI+es3dhbi/7MwFMcuFKDmSS96VeLxmVFc1oWt+/OxcEmixfJJOhZdOVEz0UkXgWneRM9orNiSgF8uP8ATlS2AZ1GppmfuxI9lmK6l9jtJArNYiH3WpCA8tgHNzwfkhrWfgRS/z+Bl3yCi4qqx/7tszF2UZBI/9rqU4bmvQZ5wn7vEiKXbYhEaU226UnWAI2kflXXi0vVKzF9MPWetjOicClSCl0yeH5PezwkwYOPuFDx89EIYapVk3/sHoYYGrNyWgbmBHHVtudwTSa5jDnQpLOkwXaHEpyDF7zPgUGeO9srIbYV+ZSr19MjrEwEwX0/83PRGrNqRhNv3H6Cissl0perAi/bXOPlDMeYvioMrB7h8xXqUnDiKnUZEdh7TqAln7vGNxaIt2ch40IrXr4fEs6YmlJQ34ertPCzezPuA/rfME03eDX7ppkQ8LFHXFMjXghS/MSKv8AUCVyfCnXpXGs4+ouOerOVGaGualzWw4XAhwfDwjcauo5koLOZdmftMVzj5kfvwBX74vYR6pyn0oCoBA1+zEyE5gSTDrGQjMv8tgp6hCMxbFoMDZ4pgSGhG/8BbU0tRBzo6+5BT8Awb9hdQWRKoUxoh0vHxGjsO7HH2Zo/QXlMkiidtfn54k+wDp/MRm/SUOphy54axQIrfGFFS2o6d+9LgvYwaeUASXPX22fTWEjlQQKONFWP6rn7R8F0dhwu/F6OzWz0pi7hX/9tf5RbLJzlF6ROC6bogTPeKxY4jRaio7iYBVNfc9Yv2IZz6tR5eq3IxJyAaHnqz+MWS+MWLZ9Zi2a0kix1TSfbOn2MRYmgwXZXEWCDFb4zo6R0UAnj+cgncA+Kg0U+c5yd6j6ZJda+VMbgVUoWaJz2qSWHGC+4HB4fxy7XSUeWSlFSGvj2XG7FtfxLikp+YWo068GbwPSprB3AjuBEBa3IwwzcRLj7USaVycbYV+y3ZYY9S2RRb5B4mrzrEWGe6KomxQIrfF+J+VI1paGPihuu8VyVg29EH2H0iF+cuPkQ1CZ+a8KLtNbIetGH/6QKL5ZOcouQOnRd5MLw+zSsIzvODcfT7XDwsb0Vnj7p2ga+u68dPl59gxfZcKk803Mg+uNtV/OjYfB59HPzWp2D3ySxk5atr3eTXhhS/L8TdkHI4zb4Bl4UhFhqkfXjgTB4qarrwrLkP7Z2vMaiipNWMtOwOLNlYiLmLki2WT3KKknPTesWR1xJKDKP3iViwPB5rDsQhp6jZ1HrUgcGh9+joGsIft8ug0QWT8MXAXZsgpiwslt1acoILfTTmBqbi7MUKND3vx8Arda2X/NqQ4veFKC5pxYVLeVi6eeLWp20+kA5jfDUaGrtNV6EOdHUPIiGtCUfPP4S73pSE20L5JKcwOeiJI0G9I+CsjYKrLhILVhiQkP4Ub9++U10EqDGxDks2GTFvSbRI12exzDYgL2h31Uditn8Cfr5SKdf0jQNS/MaB12/e4ftLj8T2Qbxdi6XGaUvqVhqx+3ACMnOemq5AHaio6caq7elw0VLPXn9H6eFbKJ/k1CSn4nLR8QiKgdoI75RwkwQwhLyZJETGNYjNb9WSoN2MBwUtOHk+B/rN4Zjmf1uIlKWyW0tnHR3XNxxz/I345UqZFL9xQIrfOMC7URc+eoGL10vhtTIBTrz/HPVcbRO2r0xk8wS2Kz04HsS9xzORk/dMpARTEx5Xd2HZlmRMWxAhhn+UDTYtlVlySlJEKrI4RMPFiww6CZ+LVwQ8fGOw7VAW7oRWok1lYft8vXmFLdh1PBYanxvU7uk55qFPsczDdnEC7CkHbEzEzeBqPK7qVtUuGZMFUvzGAR6JefNmGIUlrVi+LYUeWnqAxcJ3W2R5Z4Eg0sMyOzAaq7cl4G5IBYaH1dOz46Gq3pevkfngGQLWJ+Db+VHQePL8x8QtD5FUN2foo7GdBLCuQR27lIwE24ab9wqwclME5gUY4eZjVMRPCKDl8n4JNbpo+K1NxJlfi/CsRV0d4skEKX7jBPe0Kqo7sWlPEjx0PGFv2pnAQmP9EnIUKa8T4t3Zl21PR2L6M7xoG1DV3AfP1TzIf4KfLmeRZxxLvXlepC89P8mxkztKm/bmorb+palVqQdsG1pfvERC6hOs3ZWEmf683RB5t2J+03obMYsE9Y/b5aiq7cIrlSUFn0yQ4mcFWJQ4+nPbwUzqjcVRw7RNQIc79Xo3HczGjZBatLarK+SbMTz8DomplTh6NgkLV/CQD+/lpiz+tVReScn/UBuDDXtyUfNEfeJnxnO2D+GV2HYkE9PpmbaV+M0NjEFM8lMMDr2Vw51WQIqfFXhP3hgvNI+Of46ZvtmY7pVgsbF+CTkt0syAREQnNtGx34tzqA0sfqmZtfjup3QsXMWBDSHQ+ASR+E2+TYElJym1BhK/HFWLHwsT5wWOjK+Hux+XyzbDnnMXxyAxQ105fScjpPjZAAXFbdh3Ihe+a5KocbL3R43clHbo02P9/HdlIayrGBqMwuqdabj4V5mIlFQr+KF/1tyDqPgaLNqYTILOdRBmKqdRBACIlG3iNXpy0JvJw87mv/F1To7tq76Y1O7Yy3Ylb1u0Q9HGzOWaTOQ6NrUHce38zFAHyScU7rowbD2Qjrp6dSV0sITahl7ciajG1iO51LGN/yc7lDINYPIIR96/fxhJ3zGjxTKQafPDseVgFkJj6vG0ST05fScrpPjZAA3POhFuLMK2Q+kiY4XSaMOJ/DArAvexxs3fa3wMcCPRdPOKwNlf8/GkoR19/erJ2/kx8HzNvhOFWLAkEa46MnZURjZ2nKT7Az8Iofn96M8fe2/p8+i/jf7+o9+xONA90dCr+Ls2VlCN4sfGlCOFNSwkOqUNflFdjPr8sffWf0d17BVHn2OU+ud5c96JXB8M3apIfPdjNhqb1BfwMhrv3r8XQ5R3IuqxeGsWZi/mhf1KB+Dz4hcBJ06XpjNijl80bt6vNB1VwlpI8bMBBl4Nofl5D85fegQ3nxg4U6N28mLxC6aHOhJuZET5gbfUwDlF0Qz/RMz0j4GHzx38dj0fAwODImhE7egfGEZZRTeVqRJzFinbvkzzZANHD73eKIIAnOnB554tkw3CP++FUbDMkd+N/B8lqOC//NjvR35WroXf030iQ6N4TLwu8WMdl0lOHbUt9jB84qlMsf8pr3g/qo6trf/Rnz93fN7SyM2Pr49TnMXAzTdObNc1O9CAP26VobKm0yECOjhYjUdDOHI1Iq4Bq3ZlkZgZ4OLFWW3YQ1fq47/3kYPowjGNOgeBWzLw551SlFa0mY4qYS2k+NkQcSlN2HEkjzwdXvvH+5fxPBeJnyd5PuTl/LdxK+Ln4RcL/Zp47Doaj/hUdW1OOxYUlXbi+A+PsOfkA+w4noXdp/MEt53IEdxO3GEivxefj494b+JYvrP0t4/9Xrz/57tcbD+eS3+jazyZR6+ZWLsvCXMCLd+3SU/qYMxdmoD1+/KpjIWifP8u76j3JlrznXj/Bcffc6YA+75/iN2nCoiF2H+2GPvPPMTRHx6iuLzT1HocB0Pk/dU1dGPPiWy468k+kPjxusaPiR+v5XMRAmjA9qO5KHncKpYQSdgGUvxsiD7h6XRh84EcOHtGwomXQHAPV/sx8aMGz4t7Pe9j66EklFe1kbc0aDqa44Az4rR1vEFr+yu0thHpteXFAOqf9eLJ0x7bsdHC376Q9Y29xJfiNSmjCUu3pli4b5OfLtooLN+aitTsZiqXjevZRuR8lC86XouIZuYLaiO82XEb/e0NtRlHA3uALa0vcfh0Imb73aOOL98r9oT/e/+YTvSdE303Sx+G4+eyRZILHkKVsA2k+NkYvS+HEGp4gp3HcjAzkPfcooZMhmi6aXxf6eXxUB8Pq0Vh3qJYHDqTDWNSLfr61bWXmTXgYSCOCuXeMM+HfG3ydXzgO7x+PSx2xF65I+0fY6QOKu2MM6as3Z2Ox9WdFss7Gai21GW2QF//IBJTq3HifCbmBRqFPeB1sNO9uXNsCpYTpL/5xGLBsmR891MBUtIb8EomrrYppPjZGPxAd/e8EutwfFanUsOOJM/unjJ8wRPXJg/QSRcu1vMt25SGwkftpv+WmAzg1SVvBt+S+LWpVPyMwptYtz8dNfXqDxhxROQ9bMXSjQmYyfPfnmQTvHizat6clu0Ed4yNmOWfjLW7CvGoXP0Rr5MRUvxsDB7a4F5t5oNmLNmUCA9fnteLFEMcSii9EkDh7GPEsR+KkJHzHB2d6o/sdCRI8ZOwN9o7XiMjtxnHzz+EB3l4GhY+031TgoIMOHmhBNn5HejqnjojQhMJKX52AkeqffdjLgI3xCvCJ8SPhU/JdKKhBh4UXSfEUmJyQYqfxEQhMa0FG/fkwGtZItkFA3WKDXTvuLMcilBjrelXEvaAFD87gTeWbHjWi5//KITzvDtw0YaJ+T9+dfO+jzm+txFuqDD9WmIyQYqfxESB97x8VN6FvSfzSPwUj0+jC8Is/R+IiCk1/UrCHpDiZ2c8KGjC8XMZ0K2JwjcL78NpYQgWbzDih98yUFSirt2qpwqk+ElMJF6/eYs/b5eRXYjD7AADlm6JwQ8XE8k+NJp+IWEPSPGzMziqsX9gCJdu5mPJ1kis3pWEv4IqRTQhfycx+SDFT2IiMfz2HQldE24HFePQ6WzcC68W7U/aB/tCit8EYPjte6Tn1uPPe0W4HVaJvKIXePdONuzJCil+EhMJXrvX1NyDgqImGBKeiHYnhc/+kOI3QeD1Y7zJpWzUkx9S/CQkHB9S/CYILHq8BpANq8TkhhQ/CQnHhxQ/CYlRkOInIeH4kOInITEKUvwkJBwfUvwkJEZBip+EhONDip+ExChI8ZOQcHxI8ZOQGAUpfhISjg8pfhISoyDFT0LC8SHFT0JiFKT4SUg4PqT4SUiMghQ/CQnHhxQ/CYlRkOInIeH4kOInITEKUvwkJBwfUvwkJEZBip+EhONDip+ExChI8ZOQcHxI8ZOQGAUpfhISjg8pfhISoyDFT0LC8SHFT0JiFKT4SUg4PqT4SUiMghQ/CQnHhxQ/CYlRkOInIeH4kOInITEKUvwkJBwfUvwkJEZBip+EhONDip+ExChI8ZOQcHxI8ZOQGAUpfhISjg8pfhISoyDFT0LC8SHFT0JiFKT4SUg4PqT4SUiMghQ/CQnHhxQ/CYlRkOInIeH4kOInITEKUvwkJBwfUvwkJEZBip+EhONDip+ExChI8ZOQcHxI8ZOQGAUpfhISjg8pfhISoyDFT0LC8SHFT0JiFKT4SUg4PqT4SUiMghQ/CQnHhxQ/CYlRkOInIeH4kOInITEKUvwkJBwfUvwkJEZB3eJnIErxk5D4HKT4SUiMgprFz5XEz9Urht5Hk/hlSPGTkPgIpPhJSIyCIn7DJH4vVCl+Gil+EhKfhRQ/CYlRUL/4GcV7OewpIfFxSPGTkLCA4eG3KC5vx6qdahO/aBI/A1x9orD+gBQ/CYmPQYqfhIQFvH//HmWVnVi9K92iyExW/iN+uihsOJiBmgYpfhISliDFT0LCAv7++288ru4m8ctQhMUnkl6jMV0MKfJygv8Kz2Sgec5P4xOPjQfyUFvfZyqRhITESEjxk5D4CCpqerB6dyaJComdWfy8VSJ+3iR++/Kl+ElIfARS/CQkPgJF/LJIVHjtHIsLCaAQwf+KzuRiJFy14diwJxW1T3pMpZGQkBgJKX4SEh9BRQ0Pe6bBxcsseCoQP58IaPRh0K+OwHc/ZqCxSc75SUhYghQ/CYmP4HFNJ1buTISzNnSEAE5y+oTBPSAIe07GIsxQiI5OOewpIWEJUvwkJD6Ciup2rN3JoncH0/RRcNGFwNXnHn0O/7fgTCI6ayPgro/A1dvFqKtvw+s3Q6bSSEhIjIQUPwmJj+BJfQeOnDJCu/w+vvU3wMU3CBrdTRLAUIvCMxnovDAKM3xiEJ/aZCqFhISEJUjxk5D4CAYGBlFR1Ypfr5fAWR8PZy8DNBxMYkF0Jgs13tGYHxiLpHQpfhISn4IUPwmJz8CQ1AAXbTicFhgwXRuP6SSCloRnMnDxphR899NDlDzuNF29hISEJUjxk5D4DIzxFZg+9yKmzb0PZ20CXEy5Mycjf7pSio6uN3gz+M509RISEpYgxU9C4jOorH6B369nYdXORDj5GOAyiRe5/3G7wnTVEhISn4IUPwmJMeLS3VJoFoXBVTf5lj246aMxa5ER14OqTFcrISHxKUjxk5AYI2LTarH9eBK0K2JEAmkOfDHTkiDZn+yBchCOEWt2ZSLUWC93cZCQGCOk+ElIjBGPq1txK7QYy7fEw9UrAtO9IulV2UnhawigC53bXW/E0s3p+ONmFXp65Zo+CYmxQoqfhMQYMfBqCI+r2rD1YDycF97BtIXhcNayEHH058TPAzotCIfn4hiEGZ/g+YtXePv2velKJSQkPgcpfhISX4Ce3jcIjirHjiOJmOUfQt4fZ3v5Ojs9rNmZht+uleLJUznUKSHxpZDiJyHxBfj7bwgPKzv/KQI33IeH7j4J0dcRv3uRtRgefo/37+miJCQkvghS/CQkxoHWtj7EpVQhKKoC1+9XYc3eB9D4JcDZJwrOnPvTJ0KZC/Qy0itnhYkgweK/K98pAjZCMHm3CP676XsXPo4Pfe9jgEanDKvyHJ+rNgLr96TjbkQtqp9Ij09CYryQ4ichYQXevn2H7t43uHT7CXw35cDNn8WPc3+S+HkZiBwZyuLHohY2grxcgsXPJIBC/JTfuPwjfuRREj30RnguT4Dv2iQErEnAlZvlwuOTkJAYP6T4SUhYgb///htDw+/w5NkAwmPrsWxTFNy9gqHRxsHF20ACFim8QRf24kjkXEngXH1ChMCxZ/eB/FvlvbKInoWTvEbPSMzSReLyX+XIL25DftELNDS+lEOdEhJWQoqfhISN0NzSiyvX83DkVBYOfPcIe0/nY8uxDHiuiCXPj4RPJMbm5NPhJHAkfuQRsji6CJK3R6LnRl6e98pYrNqRgr3H83DgxAMcO5OL4tI201kkJCRsASl+EhI2AgfC9PS+RkfnK7R3vsGL9tcoedyOXYdSMNMrFO5aI9y0MdCwR6eNwHRtKIliCDQ+QcS7QhTnL4rB/hOJCIkqxtNnvWjv4OO9xpvBt6azSEhI2AJS/CQk7AQeEn35chCJKU9w7VYZ/rxVhau3qnHldhWu3HqMP+hvV24T75Tg6p1iXL1djptBVUjOqEVNXSuGhqTgSUjYC1L8JCQkJCSmHKT4SUhISEhMOUjxk5CQkJCYcpDiJyEhISEx5SDFT0JCQkJiykGKn4SEhITElIMUPwkJCQmJKQcpfhISEhISUw5S/CQkJCQkphyk+ElISEhITDlI8ZOQkJCQmHKQ4ichISEhMeUgxU9CQkJCYspBip+EhISExJSDFD8JCQkJiSkHKX4SEhISElMOUvwkJCQkJKYcpPhJSEhISEw5SPGTkJCQkJhykOInISEhITHlIMVPQkJCQmLKQYqfhISEhMSUgxQ/CQkJCYkpByl+EhISEhJTDlL8JKYc/v4beP/+bwwNv8ebwXcYGnqHt+/ei79LSEhMDUjxk5hyeP3mLVo7XiMxsxlX71fCkPQUpZVdQgglJCSmBqT4SXwS7979LUSh5cUAaht6Uf+sD53dbz7pJfF3LDD8O/597VPl/3r7hky/sAw+V//AMFrbX6GGztXY0o+OrjcYJM/MluDrqK7vxU9/lmHxtlSc+PkhYlIaxbklJCSmBqT4SXwSA6+G8aylD9eDq7DvbD5O/1aM+PQmvH373vSL/+Ld+7+F2MVnNOG7i0U4+H2B+L/8R+2mX1hGP52rrKoL96LrsOdMHn75qwyxqc+EGNoSPS8HUVHTjZO/FGH+8jjsPvUAYXH1eNn/aXGWkJBwHEjxk/gk2INjr+/s5UfwWpOAgM3J+ONOBQZeD4t5M0tgYcwrbsOvN8rJs0qB56p4+G1MRmRCAwbJi/zY/7GnGJ/+THhi81fE4cC5fETEN4jz2xLdvYMor+7GsZ8eYmZgDLYfz0FIzBMpfhISUwhS/CQ+ib///huvSOh++KMEsxfHQONnEB4TC9XQsOXhSA4kMSQ/xZ7TecKzctFFCf55v0r5vyHLXuPztle4EVqNTYey4OobjaM/FiIt9znau96YfmEbSPGTkJCQ4ifxWbC39ldwFZZsS8UMEgse/uThSRYRS+A5whsh1VixMw0LyevzWGSEs08UzpOA8v+9/MjcX2Nzv/hN4JYUTNdH46erpaiq60Ffv23n4qT4SUhISPGT+CzYk4tOeirmxuaRJ7flSLYYnuSAlNHgIc2+gWH8SMLltVoZJtWuSRBixnN/CRlNeNHx2vTrD2APs6a+F3vP5GHhynjhYV4PqkJXz6A4vyVwYA2fb9i0ZIEDY/i3POf4qYCcT4kfH4+HbVnweciXj8mf+fo+cch/QVwTH4P+l4/BFEsq+NrejfUoSvn49/x//P9MPu7Hho1HQpSD/peXcIz8PZfDXF+vTOXjc3AZ+djMsV4jXx+fw/x/n7oucT30G65XURdcr2NYXiLqgP7XfF3m34u/02ceffhQv+/w/nMHlJAwQYqfxGfBRiu7sBXnr5SIeb+Vu9Px5/1KPCYBGY1Xr98KUTz6U6H4Lc/bbSaxdA8wYtPhbBE487Spz/RrBWyu2AgXP+7Euv2ZmL0kFgtWxiE0tl4Y/o8ZVTZ+7BW2tA6QmHWRePbgGZ2bRYyN5cfs4Ejxm0Xit+NELkJN4sfX/6L9Faqf9KCUvFSOcH3R8UoRiU8Y95HgY7S2vRL/W1rZKbzdKjoeXxtHmgoh/cyh2IizOHS/HMTT5j5UkgfMXjAPDXNU6qf+n7/j4CHuOPAws/n3fF4uRzPVV0VtN4rKO/Ck8SV6qD7aO1+LwCKmco2mg30CLKIddPzn7a8FB6jclsDH4jppo04P1yuXo/7ZS7o+Hjr/+P0VQk33sY/uy3O+rpdDYsicf8/n5s8N1JYeUbvh+8/tikVQQmIskOIn8VmwyFSS0bodUQO/jUmCx0jcHhS9MP3iA3h+rqCkHTtPPoBufSIu3XqMs5cewXttIlbsShfzhWzIR4KNXBcZ4LQHz8XQKnuXK3anITGzyfSLDzAbRA6CYaOXlNmMYOMTXLlbIYZm70fXCa/0IRl2FgpLBvlf4rc4hq41FzdDq1FS0YmcwhcII9Flkf79ToUYvuWgm4y850LM2BBzZ2A0uI5YPHkJRWZ+qxBunr/8/fZjcZxr5MVyFCtHynL9sDgKwz9KZdiws1hxB+JBcRtiUhtxN7JW/D8zJKYeqbkt4vpZsBTv6d/H4GthsU2n+uS1jCy+7Gmx+PI94/JdvVcpApI4mvbJ05fi77Fpz0RZOSqXxYqPbQl8Nr52rt/ErGZEJT1FAp2Hh63N4EvisvBSFY6szaBrCY9rEPXK5bgdXgNjciNy6bwsYGaveyS4nntJ/Pn6ORo3n+qt6fmAOC+Xj0cR7lDdcBu7GVaDZLqWjw3FS0iMhhQ/ic+CDTSLWhIZFxYnjsRcvSfDojixJxFOBnT9gUws2pKCcDK0bOg2HMwSc3n8d/Y4Rhps89IINsoBm5LhuyEJh38oEIZxNNggswDxwvTD5wvFMXmYlAWTg2t4jlFP/7+fPM44EpqnIwyyGaPFb9d3D/DDH6X4+VqZ8AL5eHysecvomFRWFu7AranCaFfzHOSo9YBcFB56q6zrxgU6BnuvHOHK/8vHEMeh4y2g4/pvTMZGqgs23Hwdo4WUPbO6p71iGHYd/U63PgkLVijXI8pHx1hFnvfxnx8KQWYPb7RI8TG4LvedycNG8ravkeDw8o5wEpCtx7JF54WPNXdZrFiCkvvwBS7eLMcm8tC57s5dfiS8QxZAS+B7x9eeVdAqvPml21NFcBN/NoOFjK8jm/52hs7B7cVcr6IuqG581iViHbUH7hRUUL2yQI8E12kDtQsWNu81Cfjhail1kFqQnN2Cq/ersHi7MqfMx+LRCK57vm4JibFAip/EZ2E27g/LOoSIsdB4rk4QBpaHn0b22Hno8pfr5cIgrtiVhkwy0Kk5LTh1sRjLd6YJseLP7N2Y/4+NNwsie0hsEPn//iBPjoeyRoNFkj0GjgRlIV60OUWIzZEfCnHofAF2k5DxPCMvXuchV56r5KE/nmsyY6T4ufsbxHE2HsoSc5nsBbJwHr/wUHDP6QfCY529OJZ+ky2usaK2RwyvmQWcPS2+1jvkGfO1BNA1rdqTLq6Fl20w+dp4bpHrb9PhLKSR98Ze6cihVBYy9sJukbFnQfYRopuCLUezxXwpH4P/f9mONNGx+OFKiTjO6GhYvrY7EbWio8HiyfOoseRB8nKV1XRdPAzNx2dxvB9Vh8rabtyLqhW/43vLHYAs8l7Zw7IELi/Pz7JHykLK18LHLiz9sI6TvVL2PHnudwmJFN93rkc+J3dsDn6fL+6zju43n+9GaI3wAEd66iy+dVQfXOc8B8y/43bBgs1iu+5AFol5jrjPHCjF4s6epoTEWCDFT2LMYEPEwsAejIs+GteDq8Vw1UjvJZ3EbvepPOFBsKF+XNMthjnN3h/PA7Jocg/d/H8soCk5zTjxy0PhHbA3wcN9PNdlBusMiyUP422m773WJFKvP0EYcR5KKyhpw4PiF8LI7z+bJzwFjW80jpGA8XAmz3+ZMVL8eAmGGwkgeyNsxHlekz2qEhLxUvq/JPJuv//9ERYsj4dHQAyVKxnGlEZhZFkEGOyx8LDcNjLE7E2xyLMnxUOc/3979+KsV1Wfcfx/a2tHtGCnUouxIARESMtQUGhNoBIHxVIYBQwhXDIEyFDFSsXcCMGYRGMDmnsMtyBCLpwkCENu7Ujn7fqskxV2N+85OUmMM3Y/35k9JOS8e6+93zPrWc/vsvaO3e+U43B1sfoc9UhyVnKB/XClkN7q8plr5m6oVbWzinARdflI4VihScJIVI2ZyBNWz7i7AGnid+3c9dV1fq6M+SvlOzE+4s4JCnEKn75U3Krc26bNE6NFT+yqgstZLikuV7hyHL6vDZsO1HD2xeU78L3+sLh9rh/GYrs4C5S/LWP8+GUr6s9YFFn4vLB1ojpCz4F4XnDZ8irU/q3b09kXPwsq459V3PNVRUjvWby9OmTf14vlnATZIi2EmRDxCzPmzX1HRvc9umN0ZZncVW/eu3hHnXDatmAm82XFlV12w9rqWOaXyc+EuO/tY3WC4iyE8ORoOMRWnNDEwyr+wtkrR3PLqp5gHS6TcsOkRjCFHi8urpNQabkQPpSLI0YH3zleix7k/L65YPPowitWVgHgFuSIGl3x04Lxp5f8aPSFm9eNlhbBkI9T4EIsf1sOk7Gxf+vh7dVxGb9JlxC1idZ9GNcVZXImfhyaYhnjdS0HJySPp+BjqjYRuUIOmVvjRh95cnfNlbmnifJ55yAG3132WhVYCwwO87nyDLpi3BU/z0Bo8Np560cPl/MRYXlJY2vFLVzxW/uPVFH3XD9brs9NEdxxCGd+f/meugi5qHxft5TvgfN1TxY0xmq7OGO0ucGceRtqLlaRDTdprIpfuEu/C0ScCFpkdPPIffFzrcv9XpUFgVzf1vI7wi0qUHJOLTSqT0OYCRG/MGO0KCguEX7ShE48CEObeImBSffC2auKe1k/uv+xnXWSlaN7vYigiV1YzeeIljAfTvzX70aLi3hcfuPaKn6KYkzMTRxBCDcVZ8fpcHScxKPff/kjW58phtk/cbS6SyLJaQobKh5pdMWvOT/OiEO1nVsfk6t8lpCd1ggi/b0iQFwvjHPR0l8VR7KmTtD/Uu6zP/7psGj44IP/Gf3bM69VAfWMbi7PeMvOw7USs4/w8/x7iqu6/vnqvB7/91fqIkQRCpr4ybPJaXoGX7p9Y3HX++rz6RfZ+KvvTtjy78tzFdImgsSQmHUdqjAtkVn42K7iKOUjV1XRai0pvktOl2Bx09za3Q9O9nf2EY6Wb/RdWjQIiyq4afTFz+8cYVZ41b3fEM6GiF+YMYomNrywv4jY5joZCaMRAeG66syKe1j4+K7Rxy9dPrlf5oo91Y2ZQI8VUbm/TJicE8dgcm5l/wRHwYnJUqEId2ni64byuCZ5qRu+trGKFREUKu2Lg3mak5RvmnXd86NPFufDfQjxNbri97FZy0afufa5OkG/ffD42HYG98apCNP9eblvTkWlZHNvnJNqUU39dsH5chGuH5frEf6ZQJC45wVLdtbPewZ3LNhSHXM3pNx4ac97dbHAzSmq4cBtJ9d1ol3xsxB5/OlXqrj3Q60Nz9pm4gppPC+hSIUm2gmMr+Eab5XvQj7U98UNq2rlBp3bgmDVT94c3VbcmWvLcwr3ditBG84rMqAyWJj3L8vvxhNlnI2++P3FFStGc27ZUBzpgcnfjynuJYSZEPELM8aEY8XN5RABYa17F2+vYUdC8IttB2u4URGJCj9uqfWMmVxNyJ+/YW1xAz63ozpGk+n+t49WIRKiE1KV15JX6uIa3ymieHVxB66tEMXPyRMJlfWPJU+9XB1Py+eZkE22Juiu+NWCl+JO3FMTsz7Grr+MeBN2OU9FF5wLnFfhCcfXilS+XtyrUN+mrRN1gnfuFpbs47keKM/AM+NuLBCEflXTjrs37kiBSQ2zFqdpIaDM/+ix8eJHjOVi901RwNIQ4l1S3LRq1D+55Ee1WIVgdqtbLRC4tS/fPlkVqxBHbrPdm/tUCKN4iIAqANJWIRc77l6ER6+dt6F+Tw4h6tqsXp55X/z+es7q0by7JkOsIZwrEb8wY1RlCnk9tWxPFSBhRZO0kJaJ85nVb9RiDAKh745gNTeCFWvfrJMmgTBpmowJoOKPtg+o87VwWxfFF3cUQeG65BuF/EzSXypO8KbiLvoHkfzE55fXnxWq/I9nXx8dLZO4SborfiboObesHz32g5eLs51+e7PFZRK/qAi0xngVi63K0kStb08od05xWa5LxOSxvlIc8FPFHZuwPYtxzst1X3r13dHtZTzGe+HsFaNLr19TBWTcvV1364aa+/rUlSurG5JLfea5N06JVF/85OQUxYwLoXbxXNb9fP/oG/dtruOX97No6O7Is7uM06JDrlFLysPlmci9eQawIJBb9PwtLCxAFLPcOMW9+A7/6upV9b6FoC1w/I5Z/PTFTwXvXQ9trQ41hHMl4hdmjDCTPIuCErmX2nNWJlj5NLt2LHriV3Wlz42oUFQw0hUxjkFJOuESMt2y61AVztXF4Si/10+nl2tj+bm+S/Jzt5ZJXGm8idLEO2fe+pov0qbQP66Zu65WGioKMWmaxIUWx4mfn1dAwaVOB1dkovYZxTaKN0z69MxErfiCk+GYtEW4rhCi6lXCrSrVTjkHD5+oAtWwAPjl9oOjr5YFwaT4CdWuqc+yf18O///qf5psd5BT40IJb8tX9sVPAQ73ebo9UomznyNeFjcKZjhi7SUNRTBfK8/NfXHpXlvlOTRNdy8LHt1ZWxvaAkl4lgBOdS+csu/J75Rn9N778ocffET8tEbct2TH6LUyxhDOlYhfOGNMgCauT39xda1M1Pwu5yTPYzImUP4foekaHU3gQmJX3rS2ChdBMmnL83ASRHFp+XehtuYkGqo/FaXYL5QrEXLleP65TOxc2HSHAhohNq9hktPrih+XJgep2OR04ie39elrtDwsr051b3G7XZFWtHLk6H9XJ6QYZ+6dL4w+V+5JmFRhSG0gf3BrFXcFMU04VUcaH4fm3iwqlPIT2HH30z3uWLC5Pj/h1eay++Kn6lal7lTbjzXci9ystoWLZq+qC4y2ibmxenaqeeX5iNo/zN9Yq1rl+xrcsA3JiSPBcv+e1a13n/5eHFz/++UZCiX3xU/uctHSXXVrtBDOlYhfOGMIkR4v5fjCWipAf7j6jTo5yUMJ1ymp7wofVE2u+899dbXvs4o2iMS3H9lWV/+Ec81P36pi0A8PCtspsiCQ9gnlruQU9ZMJxU13aHOwfRpxctq+8zMeBSuKO6ZD7kpe8hPcVJmoFcF0h+nPnC4RVaCzeefhGurlZq8riwVVnMavGEiVrGrXU070lXfqfqiEVdWj3UpeLG5w3P10D60ThM05WrHO2Yqf8XtGxuaZWNhcdfO64lbfriFVxSyKYDhTzu7OhVur2+0uVIQ9iZXFibCnvlD5UJsYjBt///A74hmKMkT8wvkk4hfOGBOSykvur/XtCY/Zy9M2U3cVYSRKfYTl9HppTL+0TJ533L9l9M2FW6orkMtrW5+Z9DqaUtGbpr/OpOoVSd4NKETXzSnOlK74maCJ7oPTFLwQFe5G64Zrq7A09lbwMhU+M3H4RHV6JnAhYm5ZblO5/pv7j9Sf8Vz02SmYIX6eob5B1bVnw9mKX2Nb+e7uenBbXcgIRcsnCjXK4SpU+rNZy+oCx442FgBdPEMbGvjd8Ky+UZyp7/x0+dRxRPzC+STiF84YIbva9/avm6oLMLneVg5/tnWX0CZh6sMhyA+pTpzctmtjPfSW+bsw5qtlshtXwi7vRBAIZHV+RQh/sePgR/bZnAld8dMzyL3e/dC2KcWMmBz67fGar1SR+Nki8oS4u2vMOCad1GT/o4IduTTjJ3Cc6wvbJmoPpOIO+bhvP7y9TvK2eHN/pxPXqThX8bMfKsHTzygEqwJzzc/21s2rncuCgVBre+mHiv1da4PCJYVGnN/68nN+Z86UiF84n0T8whlDcIS7uDb9WdfMWz/6YpmYiJKtxUyKwlfjMKFziTY0VhCiaMOhKMIuKhzQOCb3itw3mv+tF2shhabtJ4v7VGU6rjevQXBVqXbDqF3xa9WgclsqMolRHxP3hk6TuwIW11aV6KzO7TrT9Z25L7ui6HsjHoRUnrS9zYAAyt1xwLWKtlzrl0XcbT02FaeuW47u/Z2r+Hk+Xlfl+QjVWqw88t3dtbKTIH7y8pW1MIUIuVYXgqVZ/jtLdtRqVLlcjtmz7eeAuxi/kKt7aUT8wvkk4hfOGJOYnTzu19B+2Yq6fZZQoGINlYe1svDo+DAXZ2ADYpO7z02+u+/ZumejcNm4F92Ce9p74Ejdf/KCIrJ/M2d1rWKUfyQgGtsJiEIJFanCiSZmIUX/3u0b7Iqf7c2U2KtstAm2ydbnnaeeq5xn2+7DtaldOFLI8s4Htta+OZMzwSOuhMWiwDV9Xt6qHa5tsWAfSrvjcH5yekK8XeeqSEgLCCcqvCs0qtjEvdQxnTza/bk3Yu3PhKNxruJnzM6t7eBTV62slbi3lWetuEg+UuhWLtPvQFes4LMTh46Nninuj0PWsG8zbYVNcqrt+dTn615Ofk+epe/JnxsRv3A+ifiFM2ZylT7ZtK6ajztQOHJBEUI7vPTFpotGbCFTYUaCaVIzQStm0dRNmMZBYEyGJlFC6dVHikd8zhsBfNbemApt7O6i5YCT0miugrDrKPvOT7iW4xKCNf7nf7a3tm9wZto67Dgz+6a11ZF5YwPxlq9rE7gXzhJOn/3Bql/X9xJq41AJqYdRdaxnxfW16k/Oce+Bo1W4GiZ15+GKiQbXRGi9IsqY5A6dS2O/n+PGCANXdez4h2/JOFfxcx4i5tnZ5Nq+pyo8Venq37th/sZT7Sh9J2cxQBQ37zhUq2yJuEpXlboPPbm7VotaOHi2vi/fp+toNdG8Lz/YiPiF80nEL5w1RMVEaHLjZrxpYenTr1Zx7E+KDZO94hU9c4plOC+f5TK4uLbf51SobvxemSzllJTTT/b7bai9Z9oI7lm8o+6UokGbiCim8SaFqTa2rgUmRWRqX96Na2v5vq3FCJ5D+T0RIiLykt4SoZWBY3GP7kd1qhyeAhFbdXG/8mSqWb3x3quHNP/L5amS5P5UVJrcuyHbycn+vXrdLxTR8Xxc088TEjlBh55BO9wYlz5Hr42SM/x9iV/jx0VwbSJtzBddOfn+P1Wg8p2qb6dDbteLcrVitO+JgAov3/lAeb7F+douzpsfOEsLGi0S3Xc4RvzC+STiF84aJfCcieZkLu76r/60vmtvOrgF4kM4iSXx4xq9UaG+3bzjhMYh/CkHx+kRHPtpcmQKM/xXyJBr8md9dcTKmDi1Rlf8CLdty7x5XS6SqNoT9JK/W1PPJczpv/KTJmGOzudbfo/700ZB6FRzqo4UFiR0ql/1PBpLbRv4x5/UvKZdVOzbSfi6iwTipRfx5dffrW5Pf5yWECLonvQ4OmrFaLlf78kjbFzWiRMfvl/w9yV+nKvXH6mGFdJ2qNTtO+lxaFJXEETM7PajOtTYfU/1Xsozvbj81589J1uwccNxfuEPRcQvnDXyWMJxCiGE/OzqcjpHYH42MXpz9wNFbJTUcxKKJI4d+79OaCqIhM20hd5steXzHIZJXh5Qvxx34Z16JmpN890ePpOqQhlvgzduITh7lnpbwtOrfl0FitPiSr5+3+Za3q+/zb8L6QoJNoz3WBHkn2+eqJtHE+T2WU3/DucwRueww8vEweNTtmgQVf+2p0zwQrcqXO9etK0WndRG8HJ/Qr0WHd5mzl15FsbUhJQguyfPxtiFSOtbF06zsOgj/6rX0HsbuTQHUebcT7chQMPG5lt3Ha6LC+/z48otOuQ2fV++t3uL09UrumXnoeqiG3KDCp24ZAVC7kdI2y4yIZwrEb9w1tTcX5n85eNMvlzddBWPXVqhiM85WshuprhMzU2VaxKzw2Vy/82+96tr4vK8Aslk38bUH5a/+7d2bffiv4RZ6NVrkX6z9/060Sr+MNb6cyc/38e/yf/Jvalo5bQ4FC0aJnDnJEqT1zr5oWloeVXnrG63jMdb3oVFCbfz1UKXKc7nOp5N+15mcs0+PtM9z4fnmvo59Gnn8Dnj1e9nZxxhaC8rJnYWD/593LM5NQbXn+JnQjgbIn7hjx4CQOgIAkcidNhycmeKiZ3QERyiVwWmTLozwfWMxWdqJebRycMrj9ruMmeKz5jwjUdlp4PYNxH6Y8J4JxcIvxu9W74n35cQrWcWwh+aiF8IIYTBEfELIYQwOCJ+IYQQBkfEL4QQwuCI+IUQQhgcEb8QQgiDI+IXQghhNHr32dHowMKTf/n/T8QvhBDC4Ij4hRBCGBwRvxBCCIMj4hdCCGFwRPxCCCEMjohfCCGEwRHxCyGEMDgifiGEEAZHxC+EEMLgiPiFEEIYHBG/EEIIgyPiF0IIYXBE/EIIIQyOiF8IIYTBEfELIYQwOCJ+IYQQBkfEL4QQwuCI+IUQQhgcEb8QQgiDI+IXQghhcET8QgghDI6IXwghhMER8QshhDA4In4hhBAGR8QvhBDC4Ij4hRBCGBwRvxBCCIMj4hdCCGFwRPxCCCEMjohfCCGEwRHxCyGEMDgifiGEEAZHxC+EEMLgiPiFEEIYHBG/EEIIgyPiF0IIYXBE/EIIIQyOiF8IIYTBEfELIYQwOCJ+IYQQBkfEL4QQwuCI+IUQQhgcEb8QQgiDI+IXQghhcET8QgghDI6IXwghhMER8QshhDA4In4hhBAGR8QvhBDC4Ij4hRBCGBwRvxBCCIMj4hdCCGFwRPxCCCEMjohfCCGEwRHxCyGEMDgifiGEEAZHxC+EEMLgiPiFEEIYHBG/EEIIgyPiF0IIYXBE/EIIIQyOiF8IIYTBEfELIYQwOCJ+IYQQBkfEL4QQwuCI+IUQQhgcEb8QQgiDI+IXQghhcET8QgghDIzR6H8BwTdLlTBaY/AAAAAASUVORK5CYII=;imageBackground=#ffffff;rounded=1;shadow=1;fontSize=11;fontColor=#9E9E9E;strokeColor=#dddddd;strokeWidth=1;arcSize=27;" parent="1" vertex="1">
          <mxGeometry x="640" y="152.71" width="32" height="34.58" as="geometry" />
        </mxCell>
      </root>
    </mxGraphModel>
  </diagram>
</mxfile>
